<?xml version="1.0" encoding="UTF-8" standalone="no"?>
<!-- Created with Inkscape (http://www.inkscape.org/) -->

<svg
   xmlns:dc="http://purl.org/dc/elements/1.1/"
   xmlns:cc="http://creativecommons.org/ns#"
   xmlns:rdf="http://www.w3.org/1999/02/22-rdf-syntax-ns#"
   xmlns:svg="http://www.w3.org/2000/svg"
   xmlns="http://www.w3.org/2000/svg"
   xmlns:sodipodi="http://sodipodi.sourceforge.net/DTD/sodipodi-0.dtd"
   xmlns:inkscape="http://www.inkscape.org/namespaces/inkscape"
   id="svg11791"
   version="1.1"
   inkscape:version="0.91 r13725"
   xml:space="preserve"
   width="311.81125"
   height="162.5"
   viewBox="0 0 311.81125 162.5"
   sodipodi:docname="hole_particle_orthogonality.svg"><metadata
     id="metadata11797"><rdf:RDF><cc:Work
         rdf:about=""><dc:format>image/svg+xml</dc:format><dc:type
           rdf:resource="http://purl.org/dc/dcmitype/StillImage" /><dc:title></dc:title></cc:Work></rdf:RDF></metadata><defs
     id="defs11795"><clipPath
       clipPathUnits="userSpaceOnUse"
       id="clipPath11933"><path
         d="m 0,130 249.449,0 0,-130 L 0,0 0,130 Z"
         id="path11935"
         inkscape:connector-curvature="0" /></clipPath><clipPath
       clipPathUnits="userSpaceOnUse"
       id="clipPath11947"><path
         d="m 39,20.132 8.97,0 0,51.023 -8.97,0 0,-51.023 z"
         id="path11949"
         inkscape:connector-curvature="0" /></clipPath><clipPath
       clipPathUnits="userSpaceOnUse"
       id="clipPath11959"><path
         d="m 39,78.977 8.97,0 0,51.023 -8.97,0 0,-51.023 z"
         id="path11961"
         inkscape:connector-curvature="0" /></clipPath><clipPath
       clipPathUnits="userSpaceOnUse"
       id="clipPath11971"><path
         d="m 13.18,40.969 20.999,0 0,12.382 -20.999,0 0,-12.382 z"
         id="path11973"
         inkscape:connector-curvature="0" /></clipPath><clipPath
       clipPathUnits="userSpaceOnUse"
       id="clipPath11999"><path
         d="m 12.186,97.349 21.994,0 0,14.778 -21.994,0 0,-14.778 z"
         id="path12001"
         inkscape:connector-curvature="0" /></clipPath><clipPath
       clipPathUnits="userSpaceOnUse"
       id="clipPath12027"><path
         d="m 0,130 249.449,0 0,-130 L 0,0 0,130 Z"
         id="path12029"
         inkscape:connector-curvature="0" /></clipPath><clipPath
       clipPathUnits="userSpaceOnUse"
       id="clipPath12163"><path
         d="m 172.204,36.866 8.442,0 0,32.996 -8.442,0 0,-32.996 z"
         id="path12165"
         inkscape:connector-curvature="0" /></clipPath><clipPath
       clipPathUnits="userSpaceOnUse"
       id="clipPath12175"><path
         d="m 172.204,95.94 8.442,0 0,32.997 -8.442,0 0,-32.997 z"
         id="path12177"
         inkscape:connector-curvature="0" /></clipPath><clipPath
       clipPathUnits="userSpaceOnUse"
       id="clipPath12187"><path
         d="m 0,130 249.449,0 0,-130 L 0,0 0,130 Z"
         id="path12189"
         inkscape:connector-curvature="0" /></clipPath><clipPath
       clipPathUnits="userSpaceOnUse"
       id="clipPath12203"><path
         d="m 146.422,15.444 19,0 0,16.988 -19,0 0,-16.988 z"
         id="path12205"
         inkscape:connector-curvature="0" /></clipPath><clipPath
       clipPathUnits="userSpaceOnUse"
       id="clipPath12231"><path
         d="m 146.422,74.444 19,0 0,16.988 -19,0 0,-16.988 z"
         id="path12233"
         inkscape:connector-curvature="0" /></clipPath><clipPath
       clipPathUnits="userSpaceOnUse"
       id="clipPath12259"><path
         d="m 144.455,104.368 21.994,0 0,14.992 -21.994,0 0,-14.992 z"
         id="path12261"
         inkscape:connector-curvature="0" /></clipPath><clipPath
       clipPathUnits="userSpaceOnUse"
       id="clipPath12291"><path
         d="m 144.952,44.552 21,0 0,14.992 -21,0 0,-14.992 z"
         id="path12293"
         inkscape:connector-curvature="0" /></clipPath><clipPath
       clipPathUnits="userSpaceOnUse"
       id="clipPath12323"><path
         d="m 65.998,1.489 19.997,0 0,11.994 -19.997,0 0,-11.994 z"
         id="path12325"
         inkscape:connector-curvature="0" /></clipPath><clipPath
       clipPathUnits="userSpaceOnUse"
       id="clipPath12347"><path
         d="m 199.228,1.489 19.997,0 0,11.994 -19.997,0 0,-11.994 z"
         id="path12349"
         inkscape:connector-curvature="0" /></clipPath><clipPath
       clipPathUnits="userSpaceOnUse"
       id="clipPath12371"><path
         d="m 0,130 249.449,0 0,-130 L 0,0 0,130 Z"
         id="path12373"
         inkscape:connector-curvature="0" /></clipPath></defs><sodipodi:namedview
     pagecolor="#ffffff"
     bordercolor="#666666"
     borderopacity="1"
     objecttolerance="10"
     gridtolerance="10"
     guidetolerance="10"
     inkscape:pageopacity="0"
     inkscape:pageshadow="2"
     inkscape:window-width="1357"
     inkscape:window-height="695"
     id="namedview11793"
     showgrid="false"
     inkscape:zoom="2.7485006"
     inkscape:cx="155.90562"
     inkscape:cy="87.999879"
     inkscape:window-x="0"
     inkscape:window-y="0"
     inkscape:window-maximized="0"
     inkscape:current-layer="g11799" /><g
     id="g11799"
     inkscape:groupmode="layer"
     inkscape:label="Figure1"
     transform="matrix(1.25,0,0,-1.25,0,162.5)"><g
       id="g11801"
       transform="translate(52.9116,23.9385)"><path
         d="M 0,0 14.173,0"
         style="fill:none;stroke:#535353;stroke-width:0.75;stroke-linecap:butt;stroke-linejoin:round;stroke-miterlimit:10;stroke-dasharray:none;stroke-opacity:1"
         id="path11803"
         inkscape:connector-curvature="0" /></g><g
       id="g11805"
       transform="translate(59.998,18.501)"><path
         d="M 0,0 0,9.084"
         style="fill:none;stroke:#000000;stroke-width:0.75;stroke-linecap:butt;stroke-linejoin:round;stroke-miterlimit:4;stroke-dasharray:none;stroke-opacity:1"
         id="path11807"
         inkscape:connector-curvature="0" /></g><g
       id="g11809"
       transform="translate(61.1089,26.7427)"><path
         d="M 0,0 -1.111,0.472 -2.222,0 -1.111,2.633 0,0 Z"
         style="fill:#000000;fill-opacity:1;fill-rule:nonzero;stroke:none"
         id="path11811"
         inkscape:connector-curvature="0" /></g><g
       id="g11813"
       transform="translate(52.9116,38.6885)"><path
         d="M 0,0 14.173,0"
         style="fill:none;stroke:#535353;stroke-width:0.75;stroke-linecap:butt;stroke-linejoin:round;stroke-miterlimit:10;stroke-dasharray:none;stroke-opacity:1"
         id="path11815"
         inkscape:connector-curvature="0" /></g><g
       id="g11817"
       transform="translate(59.998,33.251)"><path
         d="M 0,0 0,9.084"
         style="fill:none;stroke:#000000;stroke-width:0.75;stroke-linecap:butt;stroke-linejoin:round;stroke-miterlimit:4;stroke-dasharray:none;stroke-opacity:1"
         id="path11819"
         inkscape:connector-curvature="0" /></g><g
       id="g11821"
       transform="translate(61.1089,41.4927)"><path
         d="M 0,0 -1.111,0.472 -2.222,0 -1.111,2.633 0,0 Z"
         style="fill:#000000;fill-opacity:1;fill-rule:nonzero;stroke:none"
         id="path11823"
         inkscape:connector-curvature="0" /></g><g
       id="g11825"
       transform="translate(52.9116,53.4385)"><path
         d="M 0,0 14.173,0"
         style="fill:none;stroke:#535353;stroke-width:0.75;stroke-linecap:butt;stroke-linejoin:round;stroke-miterlimit:10;stroke-dasharray:none;stroke-opacity:1"
         id="path11827"
         inkscape:connector-curvature="0" /></g><g
       id="g11829"
       transform="translate(59.998,48.001)"><path
         d="M 0,0 0,9.084"
         style="fill:none;stroke:#000000;stroke-width:0.75;stroke-linecap:butt;stroke-linejoin:round;stroke-miterlimit:4;stroke-dasharray:none;stroke-opacity:1"
         id="path11831"
         inkscape:connector-curvature="0" /></g><g
       id="g11833"
       transform="translate(61.1089,56.2427)"><path
         d="M 0,0 -1.111,0.472 -2.222,0 -1.111,2.633 0,0 Z"
         style="fill:#000000;fill-opacity:1;fill-rule:nonzero;stroke:none"
         id="path11835"
         inkscape:connector-curvature="0" /></g><g
       id="g11837"
       transform="translate(52.9116,68.1885)"><path
         d="M 0,0 14.173,0"
         style="fill:none;stroke:#535353;stroke-width:0.75;stroke-linecap:butt;stroke-linejoin:round;stroke-miterlimit:10;stroke-dasharray:none;stroke-opacity:1"
         id="path11839"
         inkscape:connector-curvature="0" /></g><g
       id="g11841"
       transform="translate(59.998,62.751)"><path
         d="M 0,0 0,9.084"
         style="fill:none;stroke:#000000;stroke-width:0.75;stroke-linecap:butt;stroke-linejoin:round;stroke-miterlimit:4;stroke-dasharray:none;stroke-opacity:1"
         id="path11843"
         inkscape:connector-curvature="0" /></g><g
       id="g11845"
       transform="translate(61.1089,70.9927)"><path
         d="M 0,0 -1.111,0.472 -2.222,0 -1.111,2.633 0,0 Z"
         style="fill:#000000;fill-opacity:1;fill-rule:nonzero;stroke:none"
         id="path11847"
         inkscape:connector-curvature="0" /></g><g
       id="g11849"
       transform="translate(52.9116,82.9385)"><path
         d="M 0,0 14.173,0"
         style="fill:none;stroke:#535353;stroke-width:0.75;stroke-linecap:butt;stroke-linejoin:round;stroke-miterlimit:10;stroke-dasharray:none;stroke-opacity:1"
         id="path11851"
         inkscape:connector-curvature="0" /></g><g
       id="g11853"
       transform="translate(52.9116,97.6885)"><path
         d="M 0,0 14.173,0"
         style="fill:none;stroke:#535353;stroke-width:0.75;stroke-linecap:butt;stroke-linejoin:round;stroke-miterlimit:10;stroke-dasharray:none;stroke-opacity:1"
         id="path11855"
         inkscape:connector-curvature="0" /></g><g
       id="g11857"
       transform="translate(52.9116,112.4385)"><path
         d="M 0,0 14.173,0"
         style="fill:none;stroke:#535353;stroke-width:0.75;stroke-linecap:butt;stroke-linejoin:round;stroke-miterlimit:10;stroke-dasharray:none;stroke-opacity:1"
         id="path11859"
         inkscape:connector-curvature="0" /></g><g
       id="g11861"
       transform="translate(72.9116,23.9385)"><path
         d="M 0,0 14.173,0"
         style="fill:none;stroke:#535353;stroke-width:0.75;stroke-linecap:butt;stroke-linejoin:round;stroke-miterlimit:10;stroke-dasharray:none;stroke-opacity:1"
         id="path11863"
         inkscape:connector-curvature="0" /></g><g
       id="g11865"
       transform="translate(79.998,20.292)"><path
         d="M 0,0 0,9.084"
         style="fill:none;stroke:#000000;stroke-width:0.75;stroke-linecap:butt;stroke-linejoin:round;stroke-miterlimit:4;stroke-dasharray:none;stroke-opacity:1"
         id="path11867"
         inkscape:connector-curvature="0" /></g><g
       id="g11869"
       transform="translate(81.1089,21.1343)"><path
         d="M 0,0 -1.111,-0.472 -2.222,0 -1.111,-2.633 0,0 Z"
         style="fill:#000000;fill-opacity:1;fill-rule:nonzero;stroke:none"
         id="path11871"
         inkscape:connector-curvature="0" /></g><g
       id="g11873"
       transform="translate(72.9116,38.6885)"><path
         d="M 0,0 14.173,0"
         style="fill:none;stroke:#535353;stroke-width:0.75;stroke-linecap:butt;stroke-linejoin:round;stroke-miterlimit:10;stroke-dasharray:none;stroke-opacity:1"
         id="path11875"
         inkscape:connector-curvature="0" /></g><g
       id="g11877"
       transform="translate(79.998,35.042)"><path
         d="M 0,0 0,9.084"
         style="fill:none;stroke:#000000;stroke-width:0.75;stroke-linecap:butt;stroke-linejoin:round;stroke-miterlimit:4;stroke-dasharray:none;stroke-opacity:1"
         id="path11879"
         inkscape:connector-curvature="0" /></g><g
       id="g11881"
       transform="translate(81.1089,35.8843)"><path
         d="M 0,0 -1.111,-0.472 -2.222,0 -1.111,-2.633 0,0 Z"
         style="fill:#000000;fill-opacity:1;fill-rule:nonzero;stroke:none"
         id="path11883"
         inkscape:connector-curvature="0" /></g><g
       id="g11885"
       transform="translate(72.9116,53.4385)"><path
         d="M 0,0 14.173,0"
         style="fill:none;stroke:#535353;stroke-width:0.75;stroke-linecap:butt;stroke-linejoin:round;stroke-miterlimit:10;stroke-dasharray:none;stroke-opacity:1"
         id="path11887"
         inkscape:connector-curvature="0" /></g><g
       id="g11889"
       transform="translate(79.998,49.792)"><path
         d="M 0,0 0,9.084"
         style="fill:none;stroke:#000000;stroke-width:0.75;stroke-linecap:butt;stroke-linejoin:round;stroke-miterlimit:4;stroke-dasharray:none;stroke-opacity:1"
         id="path11891"
         inkscape:connector-curvature="0" /></g><g
       id="g11893"
       transform="translate(81.1089,50.6343)"><path
         d="M 0,0 -1.111,-0.472 -2.222,0 -1.111,-2.633 0,0 Z"
         style="fill:#000000;fill-opacity:1;fill-rule:nonzero;stroke:none"
         id="path11895"
         inkscape:connector-curvature="0" /></g><g
       id="g11897"
       transform="translate(72.9116,68.1885)"><path
         d="M 0,0 14.173,0"
         style="fill:none;stroke:#535353;stroke-width:0.75;stroke-linecap:butt;stroke-linejoin:round;stroke-miterlimit:10;stroke-dasharray:none;stroke-opacity:1"
         id="path11899"
         inkscape:connector-curvature="0" /></g><g
       id="g11901"
       transform="translate(79.998,64.542)"><path
         d="M 0,0 0,9.084"
         style="fill:none;stroke:#000000;stroke-width:0.75;stroke-linecap:butt;stroke-linejoin:round;stroke-miterlimit:4;stroke-dasharray:none;stroke-opacity:1"
         id="path11903"
         inkscape:connector-curvature="0" /></g><g
       id="g11905"
       transform="translate(81.1089,65.3843)"><path
         d="M 0,0 -1.111,-0.472 -2.222,0 -1.111,-2.633 0,0 Z"
         style="fill:#000000;fill-opacity:1;fill-rule:nonzero;stroke:none"
         id="path11907"
         inkscape:connector-curvature="0" /></g><g
       id="g11909"
       transform="translate(72.9116,82.9385)"><path
         d="M 0,0 14.173,0"
         style="fill:none;stroke:#535353;stroke-width:0.75;stroke-linecap:butt;stroke-linejoin:round;stroke-miterlimit:10;stroke-dasharray:none;stroke-opacity:1"
         id="path11911"
         inkscape:connector-curvature="0" /></g><g
       id="g11913"
       transform="translate(72.9116,97.6885)"><path
         d="M 0,0 14.173,0"
         style="fill:none;stroke:#535353;stroke-width:0.75;stroke-linecap:butt;stroke-linejoin:round;stroke-miterlimit:10;stroke-dasharray:none;stroke-opacity:1"
         id="path11915"
         inkscape:connector-curvature="0" /></g><g
       id="g11917"
       transform="translate(72.9116,112.4385)"><path
         d="M 0,0 14.173,0"
         style="fill:none;stroke:#535353;stroke-width:0.75;stroke-linecap:butt;stroke-linejoin:round;stroke-miterlimit:10;stroke-dasharray:none;stroke-opacity:1"
         id="path11919"
         inkscape:connector-curvature="0" /></g><g
       id="g11921"
       transform="translate(52.9116,127.1885)"><path
         d="M 0,0 14.173,0"
         style="fill:none;stroke:#535353;stroke-width:0.75;stroke-linecap:butt;stroke-linejoin:round;stroke-miterlimit:10;stroke-dasharray:none;stroke-opacity:1"
         id="path11923"
         inkscape:connector-curvature="0" /></g><g
       id="g11925"
       transform="translate(72.9116,127.1885)"><path
         d="M 0,0 14.173,0"
         style="fill:none;stroke:#535353;stroke-width:0.75;stroke-linecap:butt;stroke-linejoin:round;stroke-miterlimit:10;stroke-dasharray:none;stroke-opacity:1"
         id="path11927"
         inkscape:connector-curvature="0" /></g><g
       id="g11929"><g
         id="g11931"
         clip-path="url(#clipPath11933)"><g
           id="g11937"
           transform="translate(196.541,23.9385)"><path
             d="m 0,44.8 c 0,-3.607 -1.586,-6.533 -3.543,-6.533 -1.957,0 -3.544,2.926 -3.544,6.533 0,3.607 1.587,6.533 3.544,6.533 C -1.586,51.333 0,48.407 0,44.8 Z"
             style="fill:none;stroke:#b01422;stroke-width:1;stroke-linecap:butt;stroke-linejoin:miter;stroke-miterlimit:10;stroke-dasharray:none;stroke-opacity:1"
             id="path11939"
             inkscape:connector-curvature="0" /></g><path
           d="m 197.998,77.501 -10,0 0,10.875 10,0 0,-10.875 z"
           style="fill:none;stroke:#221f7f;stroke-width:1;stroke-linecap:butt;stroke-linejoin:miter;stroke-miterlimit:10;stroke-dasharray:none;stroke-opacity:1"
           id="path11941"
           inkscape:connector-curvature="0" /></g></g><g
       id="g11943"><g
         id="g11945"
         clip-path="url(#clipPath11947)"><g
           id="g11951"
           transform="translate(44.0171,53.7358)"><path
             d="m 0,0 c 0,-1.761 0,-2.163 -0.196,-2.935 -0.608,-2.501 -2.324,-3.983 -3.606,-4.693 2.238,-1.36 3.347,-3.213 3.694,-5.159 C -0.042,-13.095 0,-13.59 0,-13.745 L 0,-26.19 c 0,-2.287 1.281,-4.047 3.106,-5.129 0.283,-0.217 0.305,-0.247 0.305,-0.648 0,-0.526 -0.022,-0.556 -0.391,-0.556 -0.565,0 -2.021,1.02 -2.803,1.883 -0.652,0.743 -1.672,2.286 -1.694,4.17 -0.022,2.224 0,4.449 0,6.672 l 0,4.324 c 0,2.409 0,3.335 -1.022,5.034 -0.238,0.402 -0.802,1.266 -2.128,2.163 -0.261,0.185 -0.282,0.215 -0.282,0.617 0,0.432 0.021,0.463 0.413,0.711 2.063,1.358 3.019,3.706 3.019,5.467 l 0,11.489 c 0,1.297 0,2.966 0.977,4.416 0.436,0.587 0.848,1.174 1.781,1.853 0.24,0.217 1.218,0.958 1.739,0.958 0.369,0 0.391,-0.031 0.391,-0.556 0,-0.402 0,-0.464 -0.175,-0.555 C 2.086,15.443 0.37,14.146 0.043,11.551 0,11.243 0,10.316 0,9.667 L 0,0"
             style="fill:#000000;fill-opacity:1;fill-rule:nonzero;stroke:none"
             id="path11953"
             inkscape:connector-curvature="0" /></g></g></g><g
       id="g11955"><g
         id="g11957"
         clip-path="url(#clipPath11959)"><g
           id="g11963"
           transform="translate(44.0171,112.5806)"><path
             d="m 0,0 c 0,-1.761 0,-2.163 -0.196,-2.935 -0.608,-2.501 -2.324,-3.983 -3.606,-4.693 2.238,-1.36 3.347,-3.213 3.694,-5.159 C -0.042,-13.095 0,-13.59 0,-13.745 L 0,-26.19 c 0,-2.287 1.281,-4.047 3.106,-5.129 0.283,-0.217 0.305,-0.247 0.305,-0.648 0,-0.526 -0.022,-0.556 -0.391,-0.556 -0.565,0 -2.021,1.02 -2.803,1.883 -0.652,0.743 -1.672,2.286 -1.694,4.17 -0.022,2.224 0,4.449 0,6.672 l 0,4.324 c 0,2.409 0,3.335 -1.022,5.034 -0.238,0.402 -0.802,1.266 -2.128,2.163 -0.261,0.185 -0.282,0.215 -0.282,0.617 0,0.432 0.021,0.463 0.413,0.711 2.063,1.358 3.019,3.706 3.019,5.467 l 0,11.489 c 0,1.297 0,2.966 0.977,4.416 0.436,0.587 0.848,1.174 1.781,1.853 0.24,0.217 1.218,0.958 1.739,0.958 0.369,0 0.391,-0.031 0.391,-0.556 0,-0.402 0,-0.464 -0.175,-0.555 C 2.086,15.443 0.37,14.146 0.043,11.551 0,11.243 0,10.316 0,9.667 L 0,0"
             style="fill:#000000;fill-opacity:1;fill-rule:nonzero;stroke:none"
             id="path11965"
             inkscape:connector-curvature="0" /></g></g></g><g
       id="g11967"><g
         id="g11969"
         clip-path="url(#clipPath11971)"><g
           id="g11975"
           transform="translate(19.2515,52.6323)"><path
             d="M 0,0 -1.598,-1.625 -1.385,-1.838 0,-0.612 1.385,-1.838 1.598,-1.625 0,0 Z"
             style="fill:#000000;fill-opacity:1;fill-rule:nonzero;stroke:none"
             id="path11977"
             inkscape:connector-curvature="0" /></g><g
           id="g11979"
           transform="translate(17.2012,45.1226)"><path
             d="m 0,0 2.023,0 c 1.678,0 3.356,1.252 3.356,2.583 0,0.905 -0.799,1.784 -2.37,1.784 l -3.861,0 c -0.213,0 -0.346,0 -0.346,-0.213 0,-0.16 0.106,-0.16 0.346,-0.16 l 0.506,0 C -0.16,3.968 -0.08,3.915 -0.08,3.781 c 0,-0.026 0,-0.079 -0.053,-0.213 l -1.598,-6.417 c -0.106,-0.453 -0.133,-0.559 -1.065,-0.559 -0.213,0 -0.346,0 -0.346,-0.213 0,-0.159 0.133,-0.159 0.186,-0.159 0.32,0 1.172,0.052 1.518,0.052 0.24,0 0.506,-0.026 0.746,-0.026 l 0.772,0 c 0.107,0 0.239,0 0.239,0.213 0,0.133 -0.106,0.133 -0.319,0.133 -0.453,0 -0.772,0 -0.772,0.213 0,0.08 0.026,0.133 0.026,0.214 L 0,0 Z m 0.852,3.542 c 0.106,0.426 0.133,0.452 0.639,0.452 l 1.145,0 C 3.621,3.994 4.26,3.675 4.26,2.85 4.26,2.396 4.021,1.358 3.568,0.933 2.956,0.399 2.237,0.32 1.731,0.32 l -1.705,0 0.826,3.222"
             style="fill:#000000;fill-opacity:1;fill-rule:nonzero;stroke:none"
             id="path11981"
             inkscape:connector-curvature="0" /></g><g
           id="g11983"
           transform="translate(25.855,52.5522)"><path
             d="m 0,0 c -1.598,-1.118 -1.997,-2.902 -1.997,-4.181 0,-1.198 0.346,-3.035 1.997,-4.207 0.08,0 0.187,0 0.187,0.107 0,0.052 -0.027,0.052 -0.081,0.133 -1.145,0.985 -1.544,2.423 -1.544,3.967 0,2.264 0.879,3.356 1.544,3.994 C 0.16,-0.16 0.187,-0.134 0.187,-0.08 0.187,0 0.08,0 0,0"
             style="fill:#000000;fill-opacity:1;fill-rule:nonzero;stroke:none"
             id="path11985"
             inkscape:connector-curvature="0" /></g><g
           id="g11987"
           transform="translate(31.0215,48.9312)"><path
             d="m 0,0 c 0,0.932 -0.107,1.598 -0.506,2.183 -0.24,0.399 -0.773,0.719 -1.438,0.719 -1.971,0 -1.971,-2.29 -1.971,-2.902 0,-0.586 0,-2.85 1.971,-2.85 C 0,-2.85 0,-0.586 0,0 m -1.944,-2.61 c -0.4,0 -0.906,0.24 -1.066,0.906 -0.133,0.506 -0.133,1.197 -0.133,1.81 0,0.613 0,1.251 0.133,1.731 0.187,0.666 0.719,0.825 1.066,0.825 0.452,0 0.878,-0.266 1.038,-0.745 0.133,-0.453 0.133,-1.065 0.133,-1.811 0,-0.613 0,-1.225 -0.106,-1.757 -0.16,-0.773 -0.746,-0.959 -1.065,-0.959"
             style="fill:#000000;fill-opacity:1;fill-rule:nonzero;stroke:none"
             id="path11989"
             inkscape:connector-curvature="0" /></g><g
           id="g11991"
           transform="translate(32.1387,52.5522)"><path
             d="m 0,0 c -0.053,0 -0.159,0 -0.159,-0.08 0,-0.054 0.026,-0.08 0.079,-0.133 0.72,-0.666 1.518,-1.81 1.518,-3.968 0,-1.757 -0.532,-3.089 -1.438,-3.914 -0.159,-0.134 -0.159,-0.16 -0.159,-0.186 0,-0.054 0.026,-0.107 0.106,-0.107 0.107,0 0.906,0.559 1.465,1.598 0.373,0.692 0.612,1.624 0.612,2.583 C 2.024,-3.009 1.651,-1.172 0,0"
             style="fill:#000000;fill-opacity:1;fill-rule:nonzero;stroke:none"
             id="path11993"
             inkscape:connector-curvature="0" /></g></g></g><g
       id="g11995"><g
         id="g11997"
         clip-path="url(#clipPath11999)"><g
           id="g12003"
           transform="translate(18.2573,111.4082)"><path
             d="M 0,0 -1.598,-1.624 -1.385,-1.837 0,-0.612 1.384,-1.837 1.598,-1.624 0,0 Z"
             style="fill:#000000;fill-opacity:1;fill-rule:nonzero;stroke:none"
             id="path12005"
             inkscape:connector-curvature="0" /></g><g
           id="g12007"
           transform="translate(17.8042,100.1982)"><path
             d="m 0,0 c 1.837,0.719 3.595,2.822 3.595,5.14 0,1.917 -1.252,3.195 -3.035,3.195 -2.583,0 -5.193,-2.689 -5.193,-5.485 0,-1.971 1.331,-3.169 3.062,-3.169 0.293,0 0.693,0.052 1.145,0.186 -0.027,-0.746 -0.027,-0.772 -0.027,-0.932 0,-0.372 0,-1.305 0.986,-1.305 1.411,0 1.997,2.183 1.997,2.317 0,0.079 -0.107,0.107 -0.134,0.107 C 2.29,0.054 2.264,0 2.237,-0.08 1.971,-0.905 1.278,-1.225 0.853,-1.225 0.293,-1.225 0.133,-0.905 0,0 m -2.236,0.106 c -0.932,0.373 -1.358,1.305 -1.358,2.371 0,0.825 0.319,2.529 1.224,3.807 0.879,1.225 1.997,1.758 2.849,1.758 1.199,0 2.078,-0.933 2.078,-2.53 0,-1.199 -0.613,-3.967 -2.61,-5.086 -0.053,0.399 -0.186,1.278 -1.038,1.278 -0.639,0 -1.225,-0.586 -1.225,-1.225 0,-0.24 0.08,-0.373 0.08,-0.373 m 0.718,-0.132 c -0.159,0 -0.532,0 -0.532,0.505 0,0.48 0.453,0.958 0.932,0.958 0.506,0 0.745,-0.291 0.745,-1.011 0,-0.187 -0.026,-0.187 -0.133,-0.239 -0.319,-0.133 -0.665,-0.213 -1.012,-0.213"
             style="fill:#000000;fill-opacity:1;fill-rule:nonzero;stroke:none"
             id="path12009"
             inkscape:connector-curvature="0" /></g><g
           id="g12011"
           transform="translate(24.9673,111.3281)"><path
             d="m 0,0 c -1.598,-1.118 -2.024,-2.902 -2.024,-4.18 0,-1.198 0.373,-3.036 2.024,-4.207 0.08,0 0.16,0 0.16,0.107 0,0.052 -0.027,0.052 -0.08,0.133 -1.119,1.011 -1.518,2.422 -1.518,3.967 0,2.263 0.852,3.355 1.544,3.994 0.027,0.027 0.054,0.053 0.054,0.107 0,0.106 -0.08,0.106 -0.16,0.106"
             style="fill:#000000;fill-opacity:1;fill-rule:nonzero;stroke:none"
             id="path12013"
             inkscape:connector-curvature="0" /></g><g
           id="g12015"
           transform="translate(30.0264,107.707)"><path
             d="m 0,0 c 0,0.933 -0.106,1.598 -0.506,2.184 -0.24,0.399 -0.772,0.718 -1.438,0.718 -1.97,0 -1.97,-2.29 -1.97,-2.902 0,-0.586 0,-2.849 1.97,-2.849 C 0,-2.849 0,-0.586 0,0 m -1.944,-2.609 c -0.399,0 -0.905,0.24 -1.065,0.931 -0.133,0.48 -0.133,1.172 -0.133,1.812 0,0.612 0,1.251 0.133,1.704 0.187,0.665 0.719,0.825 1.065,0.825 0.453,0 0.879,-0.267 1.039,-0.746 0.133,-0.452 0.133,-1.064 0.133,-1.783 0,-0.64 0,-1.252 -0.106,-1.784 -0.161,-0.773 -0.746,-0.959 -1.066,-0.959"
             style="fill:#000000;fill-opacity:1;fill-rule:nonzero;stroke:none"
             id="path12017"
             inkscape:connector-curvature="0" /></g><g
           id="g12019"
           transform="translate(31.2515,111.3281)"><path
             d="m 0,0 c -0.08,0 -0.16,0 -0.16,-0.079 0,-0.054 0.027,-0.08 0.054,-0.134 0.745,-0.665 1.543,-1.81 1.543,-3.967 0,-1.757 -0.559,-3.089 -1.464,-3.915 -0.133,-0.133 -0.133,-0.159 -0.133,-0.185 0,-0.054 0.027,-0.107 0.107,-0.107 0.106,0 0.878,0.559 1.437,1.598 0.373,0.719 0.613,1.624 0.613,2.609 C 1.997,-3.009 1.651,-1.171 0,0"
             style="fill:#000000;fill-opacity:1;fill-rule:nonzero;stroke:none"
             id="path12021"
             inkscape:connector-curvature="0" /></g></g></g><g
       id="g12023"><g
         id="g12025"
         clip-path="url(#clipPath12027)"><g
           id="g12031"
           transform="translate(185.9102,23.9385)"><path
             d="M 0,0 14.174,0"
             style="fill:none;stroke:#535353;stroke-width:0.75;stroke-linecap:butt;stroke-linejoin:round;stroke-miterlimit:10;stroke-dasharray:none;stroke-opacity:1"
             id="path12033"
             inkscape:connector-curvature="0" /></g><g
           id="g12035"
           transform="translate(192.9971,77.501)"><path
             d="M 0,0 0,9.084"
             style="fill:none;stroke:#000000;stroke-width:0.75;stroke-linecap:butt;stroke-linejoin:round;stroke-miterlimit:4;stroke-dasharray:none;stroke-opacity:1"
             id="path12037"
             inkscape:connector-curvature="0" /></g><g
           id="g12039"
           transform="translate(194.1074,85.7427)"><path
             d="M 0,0 -1.11,0.472 -2.221,0 -1.11,2.633 0,0 Z"
             style="fill:#000000;fill-opacity:1;fill-rule:nonzero;stroke:none"
             id="path12041"
             inkscape:connector-curvature="0" /></g><g
           id="g12043"
           transform="translate(185.9102,38.6885)"><path
             d="M 0,0 14.174,0"
             style="fill:none;stroke:#535353;stroke-width:0.75;stroke-linecap:butt;stroke-linejoin:round;stroke-miterlimit:10;stroke-dasharray:none;stroke-opacity:1"
             id="path12045"
             inkscape:connector-curvature="0" /></g><g
           id="g12047"
           transform="translate(192.9971,33.251)"><path
             d="M 0,0 0,9.084"
             style="fill:none;stroke:#000000;stroke-width:0.75;stroke-linecap:butt;stroke-linejoin:round;stroke-miterlimit:4;stroke-dasharray:none;stroke-opacity:1"
             id="path12049"
             inkscape:connector-curvature="0" /></g><g
           id="g12051"
           transform="translate(194.1074,41.4927)"><path
             d="M 0,0 -1.11,0.472 -2.221,0 -1.11,2.633 0,0 Z"
             style="fill:#000000;fill-opacity:1;fill-rule:nonzero;stroke:none"
             id="path12053"
             inkscape:connector-curvature="0" /></g><g
           id="g12055"
           transform="translate(185.9102,53.4385)"><path
             d="M 0,0 14.174,0"
             style="fill:none;stroke:#535353;stroke-width:0.75;stroke-linecap:butt;stroke-linejoin:round;stroke-miterlimit:10;stroke-dasharray:none;stroke-opacity:1"
             id="path12057"
             inkscape:connector-curvature="0" /></g><g
           id="g12059"
           transform="translate(192.9971,48.001)"><path
             d="M 0,0 0,9.084"
             style="fill:none;stroke:#000000;stroke-width:0.75;stroke-linecap:butt;stroke-linejoin:round;stroke-miterlimit:4;stroke-dasharray:none;stroke-opacity:1"
             id="path12061"
             inkscape:connector-curvature="0" /></g><g
           id="g12063"
           transform="translate(194.1074,56.2427)"><path
             d="M 0,0 -1.11,0.472 -2.221,0 -1.11,2.633 0,0 Z"
             style="fill:#000000;fill-opacity:1;fill-rule:nonzero;stroke:none"
             id="path12065"
             inkscape:connector-curvature="0" /></g><g
           id="g12067"
           transform="translate(185.9102,68.1885)"><path
             d="M 0,0 14.174,0"
             style="fill:none;stroke:#535353;stroke-width:0.75;stroke-linecap:butt;stroke-linejoin:round;stroke-miterlimit:10;stroke-dasharray:none;stroke-opacity:1"
             id="path12069"
             inkscape:connector-curvature="0" /></g><g
           id="g12071"
           transform="translate(192.9971,17.951)"><path
             d="M 0,0 0,9.084"
             style="fill:none;stroke:#000000;stroke-width:0.75;stroke-linecap:butt;stroke-linejoin:round;stroke-miterlimit:4;stroke-dasharray:none;stroke-opacity:1"
             id="path12073"
             inkscape:connector-curvature="0" /></g><g
           id="g12075"
           transform="translate(194.1084,26.1927)"><path
             d="M 0,0 -1.111,0.472 -2.223,0 -1.111,2.633 0,0 Z"
             style="fill:#000000;fill-opacity:1;fill-rule:nonzero;stroke:none"
             id="path12077"
             inkscape:connector-curvature="0" /></g><g
           id="g12079"
           transform="translate(185.9102,82.9385)"><path
             d="M 0,0 14.174,0"
             style="fill:none;stroke:#535353;stroke-width:0.75;stroke-linecap:butt;stroke-linejoin:round;stroke-miterlimit:10;stroke-dasharray:none;stroke-opacity:1"
             id="path12081"
             inkscape:connector-curvature="0" /></g><g
           id="g12083"
           transform="translate(185.9102,97.6885)"><path
             d="M 0,0 14.174,0"
             style="fill:none;stroke:#535353;stroke-width:0.75;stroke-linecap:butt;stroke-linejoin:round;stroke-miterlimit:10;stroke-dasharray:none;stroke-opacity:1"
             id="path12085"
             inkscape:connector-curvature="0" /></g><g
           id="g12087"
           transform="translate(185.9102,112.4385)"><path
             d="M 0,0 14.174,0"
             style="fill:none;stroke:#535353;stroke-width:0.75;stroke-linecap:butt;stroke-linejoin:round;stroke-miterlimit:10;stroke-dasharray:none;stroke-opacity:1"
             id="path12089"
             inkscape:connector-curvature="0" /></g><g
           id="g12091"
           transform="translate(205.9102,23.9385)"><path
             d="M 0,0 14.174,0"
             style="fill:none;stroke:#535353;stroke-width:0.75;stroke-linecap:butt;stroke-linejoin:round;stroke-miterlimit:10;stroke-dasharray:none;stroke-opacity:1"
             id="path12093"
             inkscape:connector-curvature="0" /></g><g
           id="g12095"
           transform="translate(212.9971,20.292)"><path
             d="M 0,0 0,9.084"
             style="fill:none;stroke:#000000;stroke-width:0.75;stroke-linecap:butt;stroke-linejoin:round;stroke-miterlimit:4;stroke-dasharray:none;stroke-opacity:1"
             id="path12097"
             inkscape:connector-curvature="0" /></g><g
           id="g12099"
           transform="translate(214.1084,21.1343)"><path
             d="M 0,0 -1.111,-0.472 -2.223,0 -1.111,-2.633 0,0 Z"
             style="fill:#000000;fill-opacity:1;fill-rule:nonzero;stroke:none"
             id="path12101"
             inkscape:connector-curvature="0" /></g><g
           id="g12103"
           transform="translate(205.9102,38.6885)"><path
             d="M 0,0 14.174,0"
             style="fill:none;stroke:#535353;stroke-width:0.75;stroke-linecap:butt;stroke-linejoin:round;stroke-miterlimit:10;stroke-dasharray:none;stroke-opacity:1"
             id="path12105"
             inkscape:connector-curvature="0" /></g><g
           id="g12107"
           transform="translate(212.9971,35.042)"><path
             d="M 0,0 0,9.084"
             style="fill:none;stroke:#000000;stroke-width:0.75;stroke-linecap:butt;stroke-linejoin:round;stroke-miterlimit:4;stroke-dasharray:none;stroke-opacity:1"
             id="path12109"
             inkscape:connector-curvature="0" /></g><g
           id="g12111"
           transform="translate(214.1084,35.8843)"><path
             d="M 0,0 -1.111,-0.472 -2.223,0 -1.111,-2.633 0,0 Z"
             style="fill:#000000;fill-opacity:1;fill-rule:nonzero;stroke:none"
             id="path12113"
             inkscape:connector-curvature="0" /></g><g
           id="g12115"
           transform="translate(205.9102,53.4385)"><path
             d="M 0,0 14.174,0"
             style="fill:none;stroke:#535353;stroke-width:0.75;stroke-linecap:butt;stroke-linejoin:round;stroke-miterlimit:10;stroke-dasharray:none;stroke-opacity:1"
             id="path12117"
             inkscape:connector-curvature="0" /></g><g
           id="g12119"
           transform="translate(212.9971,49.792)"><path
             d="M 0,0 0,9.084"
             style="fill:none;stroke:#000000;stroke-width:0.75;stroke-linecap:butt;stroke-linejoin:round;stroke-miterlimit:4;stroke-dasharray:none;stroke-opacity:1"
             id="path12121"
             inkscape:connector-curvature="0" /></g><g
           id="g12123"
           transform="translate(214.1084,50.6343)"><path
             d="M 0,0 -1.111,-0.472 -2.223,0 -1.111,-2.633 0,0 Z"
             style="fill:#000000;fill-opacity:1;fill-rule:nonzero;stroke:none"
             id="path12125"
             inkscape:connector-curvature="0" /></g><g
           id="g12127"
           transform="translate(205.9102,68.1885)"><path
             d="M 0,0 14.174,0"
             style="fill:none;stroke:#535353;stroke-width:0.75;stroke-linecap:butt;stroke-linejoin:round;stroke-miterlimit:10;stroke-dasharray:none;stroke-opacity:1"
             id="path12129"
             inkscape:connector-curvature="0" /></g><g
           id="g12131"
           transform="translate(212.9971,64.542)"><path
             d="M 0,0 0,9.084"
             style="fill:none;stroke:#000000;stroke-width:0.75;stroke-linecap:butt;stroke-linejoin:round;stroke-miterlimit:4;stroke-dasharray:none;stroke-opacity:1"
             id="path12133"
             inkscape:connector-curvature="0" /></g><g
           id="g12135"
           transform="translate(214.1084,65.3843)"><path
             d="M 0,0 -1.111,-0.472 -2.223,0 -1.111,-2.633 0,0 Z"
             style="fill:#000000;fill-opacity:1;fill-rule:nonzero;stroke:none"
             id="path12137"
             inkscape:connector-curvature="0" /></g><g
           id="g12139"
           transform="translate(205.9102,82.9385)"><path
             d="M 0,0 14.174,0"
             style="fill:none;stroke:#535353;stroke-width:0.75;stroke-linecap:butt;stroke-linejoin:round;stroke-miterlimit:10;stroke-dasharray:none;stroke-opacity:1"
             id="path12141"
             inkscape:connector-curvature="0" /></g><g
           id="g12143"
           transform="translate(205.9102,97.6885)"><path
             d="M 0,0 14.174,0"
             style="fill:none;stroke:#535353;stroke-width:0.75;stroke-linecap:butt;stroke-linejoin:round;stroke-miterlimit:10;stroke-dasharray:none;stroke-opacity:1"
             id="path12145"
             inkscape:connector-curvature="0" /></g><g
           id="g12147"
           transform="translate(205.9102,112.4385)"><path
             d="M 0,0 14.174,0"
             style="fill:none;stroke:#535353;stroke-width:0.75;stroke-linecap:butt;stroke-linejoin:round;stroke-miterlimit:10;stroke-dasharray:none;stroke-opacity:1"
             id="path12149"
             inkscape:connector-curvature="0" /></g><g
           id="g12151"
           transform="translate(185.9102,127.1885)"><path
             d="M 0,0 14.174,0"
             style="fill:none;stroke:#535353;stroke-width:0.75;stroke-linecap:butt;stroke-linejoin:round;stroke-miterlimit:10;stroke-dasharray:none;stroke-opacity:1"
             id="path12153"
             inkscape:connector-curvature="0" /></g><g
           id="g12155"
           transform="translate(205.9102,127.1885)"><path
             d="M 0,0 14.174,0"
             style="fill:none;stroke:#535353;stroke-width:0.75;stroke-linecap:butt;stroke-linejoin:round;stroke-miterlimit:10;stroke-dasharray:none;stroke-opacity:1"
             id="path12157"
             inkscape:connector-curvature="0" /></g></g></g><g
       id="g12159"
       transform="translate(0,-16)"><g
         id="g12161"
         clip-path="url(#clipPath12163)"><g
           id="g12167"
           transform="translate(176.9258,58.5967)"><path
             d="m 0,0 c 0,-1.139 0,-1.398 -0.185,-1.898 -0.572,-1.617 -2.186,-2.576 -3.393,-3.035 2.105,-0.879 3.149,-2.078 3.476,-3.336 C -0.039,-8.468 0,-8.788 0,-8.888 l 0,-8.049 c 0,-1.479 1.205,-2.616 2.924,-3.316 0.266,-0.141 0.287,-0.16 0.287,-0.419 0,-0.341 -0.021,-0.36 -0.369,-0.36 -0.532,0 -1.902,0.659 -2.638,1.219 -0.613,0.48 -1.573,1.478 -1.594,2.696 -0.021,1.437 0,2.876 0,4.315 l 0,2.795 c 0,1.558 0,2.157 -0.963,3.256 -0.223,0.26 -0.753,0.819 -2.002,1.398 -0.246,0.12 -0.266,0.14 -0.266,0.399 0,0.281 0.02,0.3 0.389,0.46 1.942,0.878 2.842,2.397 2.842,3.536 l 0,7.43 c 0,0.838 0,1.918 0.92,2.856 0.409,0.379 0.797,0.759 1.675,1.198 0.227,0.14 1.148,0.62 1.637,0.62 0.348,0 0.369,-0.021 0.369,-0.36 0,-0.26 0,-0.3 -0.165,-0.359 C 1.964,9.987 0.349,9.148 0.04,7.47 0,7.271 0,6.672 0,6.252 L 0,0"
             style="fill:#000000;fill-opacity:1;fill-rule:nonzero;stroke:none"
             id="path12169"
             inkscape:connector-curvature="0" /></g></g></g><g
       id="g12171"><g
         id="g12173"
         clip-path="url(#clipPath12175)"><g
           id="g12179"
           transform="translate(176.9258,117.6714)"><path
             d="m 0,0 c 0,-1.139 0,-1.398 -0.185,-1.898 -0.572,-1.617 -2.186,-2.576 -3.393,-3.035 2.105,-0.879 3.149,-2.078 3.476,-3.336 C -0.039,-8.468 0,-8.788 0,-8.888 l 0,-8.049 c 0,-1.479 1.205,-2.616 2.924,-3.316 0.266,-0.141 0.287,-0.16 0.287,-0.419 0,-0.341 -0.021,-0.36 -0.369,-0.36 -0.532,0 -1.902,0.659 -2.638,1.219 -0.613,0.48 -1.573,1.478 -1.594,2.696 -0.021,1.437 0,2.876 0,4.315 l 0,2.795 c 0,1.558 0,2.157 -0.963,3.256 -0.223,0.26 -0.753,0.819 -2.002,1.398 -0.246,0.12 -0.266,0.14 -0.266,0.399 0,0.281 0.02,0.3 0.389,0.46 1.942,0.878 2.842,2.397 2.842,3.536 l 0,7.43 c 0,0.838 0,1.918 0.92,2.856 0.409,0.379 0.797,0.759 1.675,1.198 0.227,0.14 1.148,0.62 1.637,0.62 0.348,0 0.369,-0.021 0.369,-0.36 0,-0.26 0,-0.3 -0.165,-0.359 C 1.964,9.987 0.349,9.148 0.04,7.47 0,7.271 0,6.672 0,6.252 L 0,0"
             style="fill:#000000;fill-opacity:1;fill-rule:nonzero;stroke:none"
             id="path12181"
             inkscape:connector-curvature="0" /></g></g></g><g
       id="g12183"><g
         id="g12185"
         clip-path="url(#clipPath12187)"><g
           id="g12191"
           transform="translate(102.4116,75.9766)"><path
             d="M 0,0 28.233,0"
             style="fill:none;stroke:#6d6d6d;stroke-width:1;stroke-linecap:butt;stroke-linejoin:round;stroke-miterlimit:4;stroke-dasharray:none;stroke-opacity:1"
             id="path12193"
             inkscape:connector-curvature="0" /></g><g
           id="g12195"
           transform="translate(133.6621,75.9766)"><path
             d="M 0,0 C -1.42,-0.527 -3.182,-1.426 -4.273,-2.378 L -3.414,0 -4.273,2.377 C -3.182,1.426 -1.42,0.526 0,0"
             style="fill:#6d6d6d;fill-opacity:1;fill-rule:nonzero;stroke:none"
             id="path12197"
             inkscape:connector-curvature="0" /></g></g></g><g
       id="g12199"
       transform="translate(0,36.8)"><g
         id="g12201"
         clip-path="url(#clipPath12203)"><g
           id="g12207"
           transform="translate(151.9336,27.2402)"><path
             d="m 0,0 c 0,0.027 0.027,0.134 0.027,0.16 0,0 0,0.107 -0.133,0.107 -0.133,0 -0.133,-0.027 -0.187,-0.24 l -0.691,-2.743 c -1.891,-0.053 -3.649,-1.65 -3.649,-3.275 0,-1.118 0.852,-2.076 2.29,-2.156 -0.08,-0.374 -0.186,-0.747 -0.266,-1.119 -0.133,-0.559 -0.266,-1.011 -0.266,-1.039 0,-0.133 0.08,-0.133 0.133,-0.133 0.08,0 0.106,0 0.133,0.053 0.027,0.028 0.08,0.293 0.132,0.48 l 0.454,1.758 c 1.917,0.08 3.648,1.677 3.648,3.275 0,0.932 -0.64,2.05 -2.291,2.156 L 0,0 Z m -2.289,-7.882 c -0.693,0.054 -1.572,0.453 -1.572,1.652 0,1.437 1.039,3.088 2.823,3.249 l -1.251,-4.901 z m 1.544,4.901 c 0.905,-0.054 1.598,-0.586 1.598,-1.652 0,-1.385 -1.039,-3.089 -2.824,-3.249 l 1.226,4.901"
             style="fill:#000000;fill-opacity:1;fill-rule:nonzero;stroke:none"
             id="path12209"
             inkscape:connector-curvature="0" /></g><g
           id="g12211"
           transform="translate(156.8066,31.7402)"><path
             d="m 0,0 c -1.598,-1.118 -2.023,-2.902 -2.023,-4.18 0,-1.198 0.345,-3.036 2.023,-4.207 0.053,0 0.16,0 0.16,0.107 0,0.052 -0.027,0.052 -0.08,0.133 -1.119,0.985 -1.517,2.422 -1.517,3.94 0,2.29 0.851,3.382 1.543,4.021 0.027,0.027 0.054,0.053 0.054,0.107 C 0.16,0 0.053,0 0,0"
             style="fill:#000000;fill-opacity:1;fill-rule:nonzero;stroke:none"
             id="path12213"
             inkscape:connector-curvature="0" /></g><g
           id="g12215"
           transform="translate(160.4277,30.7822)"><path
             d="m 0,0 c 0,0.239 0,0.239 -0.239,0.239 -0.532,-0.532 -1.305,-0.532 -1.652,-0.532 l 0,-0.293 c 0.213,0 0.746,0 1.225,0.213 l 0,-4.287 c 0,-0.266 0,-0.373 -0.852,-0.373 l -0.319,0 0,-0.292 c 0.159,0 1.198,0.026 1.491,0.026 0.266,0 1.331,-0.026 1.518,-0.026 l 0,0.292 -0.319,0 C 0,-5.033 0,-4.926 0,-4.66 L 0,0"
             style="fill:#000000;fill-opacity:1;fill-rule:nonzero;stroke:none"
             id="path12217"
             inkscape:connector-curvature="0" /></g><g
           id="g12219"
           transform="translate(163.0908,31.7402)"><path
             d="m 0,0 c -0.08,0 -0.159,0 -0.159,-0.079 0,-0.054 0,-0.08 0.053,-0.134 0.746,-0.665 1.544,-1.81 1.544,-3.967 0,-1.757 -0.559,-3.089 -1.464,-3.915 -0.133,-0.133 -0.133,-0.159 -0.133,-0.185 0,-0.054 0,-0.107 0.105,-0.107 0.08,0 0.879,0.559 1.439,1.597 0.372,0.692 0.612,1.625 0.612,2.583 C 1.997,-3.009 1.651,-1.171 0,0"
             style="fill:#000000;fill-opacity:1;fill-rule:nonzero;stroke:none"
             id="path12221"
             inkscape:connector-curvature="0" /></g><g
           id="g12223"
           transform="translate(158.1387,18.1875)"><path
             d="m 0,0 c 0,0.745 -0.347,1.171 -1.252,1.171 -0.746,0 -1.144,-0.452 -1.332,-0.772 l -0.025,0 0,2.903 -1.252,-0.107 0,-0.293 c 0.558,0 0.638,-0.053 0.638,-0.479 l 0,-4.314 c 0,-0.346 -0.08,-0.346 -0.638,-0.346 l 0,-0.293 c 0.026,0 0.612,0.027 0.959,0.027 0.318,0 0.878,-0.027 0.958,-0.027 l 0,0.293 c -0.533,0 -0.613,0 -0.613,0.346 l 0,1.518 c 0,0.879 0.692,1.305 1.252,1.305 0.585,0 0.665,-0.453 0.665,-0.906 l 0,-1.917 c 0,-0.346 -0.106,-0.346 -0.639,-0.346 l 0,-0.293 c 0.027,0 0.613,0.027 0.959,0.027 0.32,0 0.879,-0.027 0.959,-0.027 l 0,0.293 C 0.105,-2.237 0,-2.237 0,-1.891 L 0,0"
             style="fill:#000000;fill-opacity:1;fill-rule:nonzero;stroke:none"
             id="path12225"
             inkscape:connector-curvature="0" /></g></g></g><g
       id="g12227"><g
         id="g12229"
         clip-path="url(#clipPath12231)"><g
           id="g12235"
           transform="translate(151.9336,87.4385)"><path
             d="m 0,0 c 0,0.026 0.027,0.16 0.027,0.16 0,0 0,0.107 -0.133,0.107 -0.133,0 -0.133,-0.028 -0.187,-0.241 l -0.691,-2.742 c -1.891,-0.054 -3.649,-1.651 -3.649,-3.275 0,-1.118 0.852,-2.05 2.29,-2.157 -0.08,-0.346 -0.186,-0.746 -0.266,-1.119 -0.133,-0.558 -0.266,-1.011 -0.266,-1.038 0,-0.133 0.08,-0.133 0.133,-0.133 0.08,0 0.106,0.027 0.133,0.053 0.027,0.027 0.08,0.293 0.132,0.48 l 0.454,1.757 c 1.917,0.08 3.648,1.677 3.648,3.275 0,0.933 -0.64,2.051 -2.291,2.157 L 0,0 Z m -2.289,-7.882 c -0.693,0.054 -1.572,0.453 -1.572,1.652 0,1.437 1.039,3.088 2.823,3.248 l -1.251,-4.9 z m 1.544,4.9 c 0.905,-0.053 1.598,-0.586 1.598,-1.651 0,-1.385 -1.039,-3.089 -2.824,-3.249 l 1.226,4.9"
             style="fill:#000000;fill-opacity:1;fill-rule:nonzero;stroke:none"
             id="path12237"
             inkscape:connector-curvature="0" /></g><g
           id="g12239"
           transform="translate(156.8066,90.6602)"><path
             d="m 0,0 c -1.598,-1.145 -2.023,-2.929 -2.023,-4.207 0,-1.172 0.345,-3.035 2.023,-4.207 0.053,0 0.16,0 0.16,0.106 0,0.054 -0.027,0.08 -0.08,0.133 -1.119,1.013 -1.517,2.424 -1.517,3.968 0,2.264 0.851,3.382 1.543,3.994 0.027,0.026 0.054,0.054 0.054,0.107 C 0.16,0 0.053,0 0,0"
             style="fill:#000000;fill-opacity:1;fill-rule:nonzero;stroke:none"
             id="path12241"
             inkscape:connector-curvature="0" /></g><g
           id="g12243"
           transform="translate(160.4277,89.7021)"><path
             d="M 0,0 C 0,0.213 0,0.213 -0.239,0.213 -0.771,-0.32 -1.544,-0.32 -1.891,-0.32 l 0,-0.292 c 0.213,0 0.746,0 1.225,0.239 l 0,-4.287 c 0,-0.293 0,-0.4 -0.852,-0.4 l -0.319,0 0,-0.293 c 0.159,0 1.198,0.027 1.491,0.027 0.266,0 1.331,-0.027 1.518,-0.027 l 0,0.293 -0.319,0 C 0,-5.06 0,-4.953 0,-4.66 L 0,0"
             style="fill:#000000;fill-opacity:1;fill-rule:nonzero;stroke:none"
             id="path12245"
             inkscape:connector-curvature="0" /></g><g
           id="g12247"
           transform="translate(163.0908,90.6602)"><path
             d="m 0,0 c -0.08,0 -0.159,0 -0.159,-0.106 0,-0.053 0,-0.081 0.053,-0.133 0.746,-0.666 1.544,-1.811 1.544,-3.968 0,-1.757 -0.559,-3.089 -1.464,-3.914 -0.133,-0.133 -0.133,-0.133 -0.133,-0.187 0,-0.052 0,-0.106 0.105,-0.106 0.08,0 0.879,0.56 1.439,1.598 0.372,0.718 0.612,1.624 0.612,2.609 C 1.997,-3.035 1.651,-1.198 0,0"
             style="fill:#000000;fill-opacity:1;fill-rule:nonzero;stroke:none"
             id="path12249"
             inkscape:connector-curvature="0" /></g><g
           id="g12251"
           transform="translate(156.168,75.1104)"><path
             d="m 0,0 c -0.56,0 -0.639,0 -0.639,0.372 l 0,1.358 c 0.053,-0.026 0.426,-0.479 1.145,-0.479 1.118,0 2.051,0.825 2.051,1.891 0,1.038 -0.853,1.89 -1.918,1.89 -0.479,0 -0.959,-0.16 -1.305,-0.506 l 0,0.506 -1.278,-0.08 0,-0.293 c 0.586,0 0.639,-0.053 0.639,-0.399 l 0,-3.888 C -1.305,0 -1.385,0 -1.944,0 l 0,-0.293 c 0.026,0 0.612,0.026 0.959,0.026 0.319,0 0.905,-0.026 0.985,-0.026 L 0,0 Z m -0.639,4.127 c 0.239,0.426 0.744,0.639 1.198,0.639 0.692,0 1.252,-0.745 1.252,-1.624 0,-0.959 -0.639,-1.651 -1.359,-1.651 -0.745,0 -1.065,0.639 -1.091,0.692 l 0,1.944"
             style="fill:#000000;fill-opacity:1;fill-rule:nonzero;stroke:none"
             id="path12253"
             inkscape:connector-curvature="0" /></g></g></g><g
       id="g12255"><g
         id="g12257"
         clip-path="url(#clipPath12259)"><g
           id="g12263"
           transform="translate(150.5264,118.8525)"><path
             d="M 0,0 -1.598,-1.624 -1.385,-1.837 0,-0.639 1.385,-1.837 1.598,-1.624 0,0 Z"
             style="fill:#000000;fill-opacity:1;fill-rule:nonzero;stroke:none"
             id="path12265"
             inkscape:connector-curvature="0" /></g><g
           id="g12267"
           transform="translate(150.0732,107.6426)"><path
             d="m 0,0 c 1.838,0.692 3.595,2.822 3.595,5.112 0,1.918 -1.251,3.223 -3.035,3.223 -2.583,0 -5.193,-2.717 -5.193,-5.485 0,-1.971 1.331,-3.196 3.063,-3.196 0.293,0 0.691,0.053 1.144,0.187 -0.027,-0.746 -0.027,-0.773 -0.027,-0.905 0,-0.4 0,-1.332 0.986,-1.332 1.41,0 1.996,2.183 1.996,2.316 C 2.529,0 2.424,0.054 2.396,0.054 2.29,0.054 2.264,-0.026 2.236,-0.08 1.971,-0.932 1.278,-1.225 0.853,-1.225 0.293,-1.225 0.133,-0.905 0,0 m -2.236,0.08 c -0.932,0.373 -1.358,1.305 -1.358,2.397 0,0.798 0.319,2.502 1.225,3.781 0.879,1.224 1.996,1.784 2.848,1.784 1.199,0 2.078,-0.933 2.078,-2.53 0,-1.199 -0.614,-3.994 -2.61,-5.113 -0.053,0.427 -0.186,1.279 -1.039,1.279 -0.638,0 -1.224,-0.586 -1.224,-1.199 0,-0.239 0.08,-0.373 0.08,-0.399 m 0.718,-0.106 c -0.16,0 -0.533,0 -0.533,0.505 0,0.48 0.453,0.959 0.933,0.959 0.506,0 0.745,-0.292 0.745,-1.011 0,-0.187 -0.026,-0.214 -0.133,-0.24 -0.319,-0.133 -0.666,-0.213 -1.012,-0.213"
             style="fill:#000000;fill-opacity:1;fill-rule:nonzero;stroke:none"
             id="path12269"
             inkscape:connector-curvature="0" /></g><g
           id="g12271"
           transform="translate(157.2363,118.7734)"><path
             d="m 0,0 c -1.598,-1.119 -2.024,-2.902 -2.024,-4.207 0,-1.172 0.373,-3.01 2.024,-4.181 0.079,0 0.159,0 0.159,0.079 0,0.054 -0.025,0.08 -0.08,0.134 -1.117,1.012 -1.517,2.449 -1.517,3.968 0,2.263 0.852,3.381 1.544,3.994 0.028,0.053 0.053,0.079 0.053,0.107 C 0.159,0 0.079,0 0,0"
             style="fill:#000000;fill-opacity:1;fill-rule:nonzero;stroke:none"
             id="path12273"
             inkscape:connector-curvature="0" /></g><g
           id="g12275"
           transform="translate(160.7783,117.8145)"><path
             d="m 0,0 c 0,0.213 -0.027,0.239 -0.268,0.239 -0.531,-0.532 -1.304,-0.532 -1.65,-0.532 l 0,-0.319 c 0.213,0 0.772,0 1.225,0.239 l 0,-4.287 c 0,-0.266 0,-0.372 -0.826,-0.372 l -0.319,0 0,-0.321 c 0.133,0.028 1.172,0.054 1.491,0.054 0.267,0 1.305,-0.054 1.492,-0.054 l 0,0.321 -0.321,0 C 0,-5.032 0,-4.926 0,-4.66 L 0,0"
             style="fill:#000000;fill-opacity:1;fill-rule:nonzero;stroke:none"
             id="path12277"
             inkscape:connector-curvature="0" /></g><g
           id="g12279"
           transform="translate(163.5205,118.7734)"><path
             d="m 0,0 c -0.08,0 -0.16,0 -0.16,-0.106 0,-0.028 0.027,-0.054 0.054,-0.134 0.745,-0.665 1.543,-1.784 1.543,-3.967 0,-1.758 -0.558,-3.063 -1.464,-3.888 -0.133,-0.16 -0.133,-0.16 -0.133,-0.214 0,-0.026 0.027,-0.079 0.107,-0.079 0.106,0 0.878,0.533 1.438,1.598 0.373,0.692 0.612,1.598 0.612,2.583 C 1.997,-3.009 1.65,-1.172 0,0"
             style="fill:#000000;fill-opacity:1;fill-rule:nonzero;stroke:none"
             id="path12281"
             inkscape:connector-curvature="0" /></g><g
           id="g12283"
           transform="translate(157.876,107.7227)"><path
             d="m 0,0 c -0.214,-0.053 -0.347,-0.213 -0.347,-0.399 0,-0.187 0.16,-0.267 0.267,-0.267 0.08,0 0.398,0.054 0.398,0.479 0,0.56 -0.586,0.747 -1.117,0.747 -1.305,0 -1.545,-0.986 -1.545,-1.226 0,-0.319 0.186,-0.532 0.293,-0.612 0.239,-0.187 0.373,-0.213 0.959,-0.32 0.186,-0.026 0.719,-0.132 0.719,-0.559 0,-0.133 -0.107,-0.452 -0.453,-0.665 -0.32,-0.187 -0.746,-0.187 -0.825,-0.187 -0.347,0 -0.826,0.08 -1.013,0.346 0.268,0.054 0.453,0.267 0.453,0.479 0,0.213 -0.16,0.32 -0.319,0.32 -0.24,0 -0.506,-0.186 -0.506,-0.559 0,-0.506 0.559,-0.825 1.358,-0.825 1.544,0 1.837,1.064 1.837,1.384 0,0.772 -0.852,0.932 -1.145,0.985 -0.08,0.027 -0.293,0.054 -0.346,0.08 -0.319,0.054 -0.453,0.239 -0.453,0.426 0,0.186 0.134,0.399 0.32,0.533 0.239,0.133 0.532,0.159 0.666,0.159 C -0.613,0.319 -0.187,0.293 0,0"
             style="fill:#000000;fill-opacity:1;fill-rule:nonzero;stroke:none"
             id="path12285"
             inkscape:connector-curvature="0" /></g></g></g><g
       id="g12287"
       transform="translate(0,-16)"><g
         id="g12289"
         clip-path="url(#clipPath12291)"><g
           id="g12295"
           transform="translate(151.0244,59.0376)"><path
             d="M 0,0 -1.598,-1.624 -1.385,-1.837 0,-0.639 1.385,-1.837 1.598,-1.624 0,0 Z"
             style="fill:#000000;fill-opacity:1;fill-rule:nonzero;stroke:none"
             id="path12297"
             inkscape:connector-curvature="0" /></g><g
           id="g12299"
           transform="translate(148.9736,51.5288)"><path
             d="m 0,0 2.023,0 c 1.678,0 3.356,1.226 3.356,2.557 0,0.931 -0.799,1.81 -2.37,1.81 l -3.861,0 c -0.212,0 -0.346,0 -0.346,-0.239 0,-0.134 0.106,-0.134 0.346,-0.134 0.16,0 0.373,0 0.506,-0.026 0.186,-0.027 0.266,-0.054 0.266,-0.187 0,-0.052 0,-0.08 -0.053,-0.239 L -1.73,-2.849 c -0.108,-0.453 -0.133,-0.559 -1.066,-0.559 -0.213,0 -0.347,0 -0.347,-0.213 0,-0.16 0.134,-0.16 0.188,-0.16 0.318,0 1.171,0.027 1.518,0.027 l 0.745,0 c 0.266,0 0.532,-0.027 0.772,-0.027 0.107,0 0.239,0 0.239,0.24 0,0.133 -0.106,0.133 -0.319,0.133 -0.453,0 -0.771,0 -0.771,0.213 0,0.08 0.025,0.133 0.025,0.213 L 0,0 Z m 0.852,3.542 c 0.107,0.426 0.133,0.452 0.639,0.452 l 1.146,0 C 3.621,3.994 4.26,3.675 4.26,2.85 4.26,2.396 4.021,1.358 3.568,0.933 2.955,0.399 2.236,0.293 1.73,0.293 l -1.704,0 0.826,3.249"
             style="fill:#000000;fill-opacity:1;fill-rule:nonzero;stroke:none"
             id="path12301"
             inkscape:connector-curvature="0" /></g><g
           id="g12303"
           transform="translate(157.6279,58.9585)"><path
             d="m 0,0 c -1.598,-1.119 -1.998,-2.902 -1.998,-4.207 0,-1.172 0.347,-3.01 1.998,-4.181 0.08,0 0.186,0 0.186,0.079 0,0.054 -0.027,0.08 -0.081,0.134 -1.144,1.012 -1.543,2.449 -1.543,3.968 0,2.263 0.878,3.381 1.543,3.994 0.054,0.053 0.081,0.079 0.081,0.107 C 0.186,0 0.08,0 0,0"
             style="fill:#000000;fill-opacity:1;fill-rule:nonzero;stroke:none"
             id="path12305"
             inkscape:connector-curvature="0" /></g><g
           id="g12307"
           transform="translate(161.2754,57.9995)"><path
             d="m 0,0 c 0,0.213 -0.026,0.239 -0.267,0.239 -0.532,-0.532 -1.304,-0.532 -1.65,-0.532 l 0,-0.319 c 0.213,0 0.771,0 1.225,0.239 l 0,-4.287 c 0,-0.266 0,-0.372 -0.826,-0.372 l -0.319,0 0,-0.321 c 0.133,0.028 1.172,0.054 1.49,0.054 0.268,0 1.305,-0.054 1.493,-0.054 l 0,0.321 -0.321,0 C 0,-5.032 0,-4.926 0,-4.66 L 0,0"
             style="fill:#000000;fill-opacity:1;fill-rule:nonzero;stroke:none"
             id="path12309"
             inkscape:connector-curvature="0" /></g><g
           id="g12311"
           transform="translate(163.9111,58.9585)"><path
             d="m 0,0 c -0.053,0 -0.159,0 -0.159,-0.106 0,-0.028 0.026,-0.054 0.079,-0.134 0.72,-0.665 1.518,-1.784 1.518,-3.967 0,-1.758 -0.532,-3.063 -1.438,-3.888 -0.159,-0.16 -0.159,-0.16 -0.159,-0.214 0,-0.026 0.026,-0.079 0.106,-0.079 0.107,0 0.906,0.533 1.465,1.598 0.373,0.692 0.612,1.598 0.612,2.583 C 2.024,-3.009 1.651,-1.172 0,0"
             style="fill:#000000;fill-opacity:1;fill-rule:nonzero;stroke:none"
             id="path12313"
             inkscape:connector-curvature="0" /></g><g
           id="g12315"
           transform="translate(156.6689,47.9077)"><path
             d="m 0,0 c -0.213,-0.053 -0.346,-0.213 -0.346,-0.399 0,-0.187 0.159,-0.267 0.266,-0.267 0.107,0 0.426,0.054 0.426,0.479 0,0.56 -0.612,0.747 -1.117,0.747 -1.333,0 -1.573,-0.986 -1.573,-1.226 0,-0.319 0.188,-0.532 0.321,-0.612 0.212,-0.187 0.345,-0.213 0.931,-0.32 0.187,-0.026 0.719,-0.132 0.719,-0.559 0,-0.133 -0.08,-0.452 -0.452,-0.665 -0.32,-0.187 -0.72,-0.187 -0.825,-0.187 -0.347,0 -0.827,0.08 -1.012,0.346 0.266,0.054 0.452,0.267 0.452,0.479 0,0.213 -0.134,0.32 -0.319,0.32 -0.241,0 -0.48,-0.186 -0.48,-0.559 0,-0.506 0.532,-0.825 1.331,-0.825 1.572,0 1.838,1.064 1.838,1.384 0,0.772 -0.852,0.932 -1.145,0.985 -0.079,0.027 -0.293,0.054 -0.347,0.08 -0.318,0.054 -0.452,0.239 -0.452,0.426 0,0.186 0.134,0.399 0.319,0.533 0.24,0.133 0.533,0.159 0.666,0.159 C -0.612,0.319 -0.187,0.293 0,0"
             style="fill:#000000;fill-opacity:1;fill-rule:nonzero;stroke:none"
             id="path12317"
             inkscape:connector-curvature="0" /></g></g></g><g
       id="g12319"><g
         id="g12321"
         clip-path="url(#clipPath12323)"><g
           id="g12327"
           transform="translate(70.3643,3.0981)"><path
             d="M 0,0 C 1.838,0.133 3.169,1.251 3.169,2.449 3.169,3.701 1.811,4.767 0,4.926 L 0,5.592 C 0,5.991 0,6.15 1.119,6.15 l 0.399,0 0,0.373 C 1.092,6.497 0,6.497 -0.506,6.497 c -0.478,0 -1.598,0 -2.023,0.026 l 0,-0.373 0.399,0 c 1.118,0 1.118,-0.132 1.118,-0.558 l 0,-0.666 C -2.822,4.739 -4.1,3.647 -4.1,2.477 -4.1,1.251 -2.77,0.187 -1.012,0 l 0,-0.666 c 0,-0.399 0,-0.586 -1.118,-0.586 l -0.399,0 0,-0.346 c 0.425,0.027 1.517,0.027 2.023,0.027 0.48,0 1.598,0 2.024,-0.027 l 0,0.346 -0.399,0 C 0,-1.252 0,-1.092 0,-0.666 L 0,0 Z m -1.012,0.267 c -1.677,0.239 -1.89,1.463 -1.89,2.182 0,0.64 0.107,1.971 1.89,2.211 l 0,-4.393 z M 0,4.66 C 1.625,4.474 1.971,3.382 1.971,2.477 1.971,1.757 1.785,0.479 0,0.267 L 0,4.66"
             style="fill:#000000;fill-opacity:1;fill-rule:nonzero;stroke:none"
             id="path12329"
             inkscape:connector-curvature="0" /></g><g
           id="g12331"
           transform="translate(77.1807,12.6841)"><path
             d="m 0,0 c -1.598,-1.118 -2.023,-2.902 -2.023,-4.181 0,-1.198 0.373,-3.035 2.023,-4.207 0.08,0 0.16,0 0.16,0.107 0,0.052 -0.026,0.052 -0.08,0.133 -1.117,0.985 -1.517,2.423 -1.517,3.967 0,2.264 0.852,3.356 1.544,3.994 C 0.134,-0.16 0.16,-0.134 0.16,-0.08 0.16,0 0.08,0 0,0"
             style="fill:#000000;fill-opacity:1;fill-rule:nonzero;stroke:none"
             id="path12333"
             inkscape:connector-curvature="0" /></g><g
           id="g12335"
           transform="translate(82.2412,9.063)"><path
             d="m 0,0 c 0,0.932 -0.107,1.598 -0.507,2.183 -0.266,0.399 -0.772,0.719 -1.437,0.719 -1.971,0 -1.971,-2.29 -1.971,-2.902 0,-0.586 0,-2.85 1.971,-2.85 C 0,-2.85 0,-0.586 0,0 m -1.944,-2.61 c -0.4,0 -0.906,0.24 -1.066,0.906 -0.133,0.506 -0.133,1.197 -0.133,1.81 0,0.613 0,1.251 0.133,1.731 0.16,0.666 0.719,0.825 1.066,0.825 0.452,0 0.878,-0.266 1.038,-0.745 0.133,-0.453 0.133,-1.065 0.133,-1.811 0,-0.613 0,-1.225 -0.106,-1.757 -0.16,-0.773 -0.746,-0.959 -1.065,-0.959"
             style="fill:#000000;fill-opacity:1;fill-rule:nonzero;stroke:none"
             id="path12337"
             inkscape:connector-curvature="0" /></g><g
           id="g12339"
           transform="translate(83.4658,12.6841)"><path
             d="m 0,0 c -0.08,0 -0.16,0 -0.16,-0.08 0,-0.054 0.027,-0.08 0.053,-0.133 0.746,-0.666 1.544,-1.81 1.544,-3.968 0,-1.757 -0.558,-3.089 -1.464,-3.914 -0.133,-0.134 -0.133,-0.16 -0.133,-0.186 0,-0.054 0.027,-0.107 0.106,-0.107 0.08,0 0.879,0.559 1.439,1.598 0.372,0.692 0.611,1.624 0.611,2.583 C 1.996,-3.009 1.65,-1.172 0,0"
             style="fill:#000000;fill-opacity:1;fill-rule:nonzero;stroke:none"
             id="path12341"
             inkscape:connector-curvature="0" /></g></g></g><g
       id="g12343"><g
         id="g12345"
         clip-path="url(#clipPath12347)"><g
           id="g12351"
           transform="translate(203.5937,3.0981)"><path
             d="M 0,0 C 1.838,0.133 3.169,1.251 3.169,2.449 3.169,3.701 1.811,4.767 0,4.926 L 0,5.592 C 0,5.991 0,6.15 1.119,6.15 l 0.399,0 0,0.373 C 1.092,6.497 0,6.497 -0.506,6.497 c -0.478,0 -1.598,0 -2.023,0.026 l 0,-0.373 0.399,0 c 1.118,0 1.118,-0.132 1.118,-0.558 l 0,-0.666 C -2.822,4.739 -4.1,3.647 -4.1,2.477 -4.1,1.251 -2.77,0.187 -1.012,0 l 0,-0.666 c 0,-0.399 0,-0.586 -1.118,-0.586 l -0.399,0 0,-0.346 c 0.425,0.027 1.517,0.027 2.023,0.027 0.48,0 1.598,0 2.024,-0.027 l 0,0.346 -0.399,0 C 0,-1.252 0,-1.092 0,-0.666 L 0,0 Z m -1.012,0.267 c -1.677,0.239 -1.89,1.463 -1.89,2.182 0,0.64 0.107,1.971 1.89,2.211 l 0,-4.393 z M 0,4.66 C 1.625,4.474 1.971,3.382 1.971,2.477 1.971,1.757 1.785,0.479 0,0.267 L 0,4.66"
             style="fill:#000000;fill-opacity:1;fill-rule:nonzero;stroke:none"
             id="path12353"
             inkscape:connector-curvature="0" /></g><g
           id="g12355"
           transform="translate(210.4102,12.6841)"><path
             d="m 0,0 c -1.598,-1.118 -2.023,-2.902 -2.023,-4.181 0,-1.198 0.373,-3.035 2.023,-4.207 0.08,0 0.16,0 0.16,0.107 0,0.052 -0.026,0.052 -0.08,0.133 -1.117,0.985 -1.517,2.423 -1.517,3.967 0,2.264 0.852,3.356 1.544,3.994 C 0.134,-0.16 0.16,-0.134 0.16,-0.08 0.16,0 0.08,0 0,0"
             style="fill:#000000;fill-opacity:1;fill-rule:nonzero;stroke:none"
             id="path12357"
             inkscape:connector-curvature="0" /></g><g
           id="g12359"
           transform="translate(213.9521,11.7251)"><path
             d="m 0,0 c 0,0.24 -0.026,0.24 -0.267,0.24 -0.532,-0.533 -1.304,-0.533 -1.65,-0.533 l 0,-0.293 c 0.213,0 0.771,0 1.225,0.213 l 0,-4.286 c 0,-0.267 0,-0.373 -0.826,-0.373 l -0.319,0 0,-0.293 c 0.133,0 1.172,0.026 1.49,0.026 0.241,0 1.305,-0.026 1.493,-0.026 l 0,0.293 -0.321,0 C 0,-5.032 0,-4.926 0,-4.659 L 0,0"
             style="fill:#000000;fill-opacity:1;fill-rule:nonzero;stroke:none"
             id="path12361"
             inkscape:connector-curvature="0" /></g><g
           id="g12363"
           transform="translate(216.6953,12.6841)"><path
             d="m 0,0 c -0.08,0 -0.16,0 -0.16,-0.08 0,-0.054 0.027,-0.08 0.053,-0.133 0.746,-0.666 1.544,-1.81 1.544,-3.968 0,-1.757 -0.558,-3.089 -1.464,-3.914 -0.133,-0.134 -0.133,-0.16 -0.133,-0.186 0,-0.054 0.027,-0.107 0.106,-0.107 0.08,0 0.879,0.559 1.439,1.598 0.372,0.692 0.611,1.624 0.611,2.583 C 1.996,-3.009 1.65,-1.172 0,0"
             style="fill:#000000;fill-opacity:1;fill-rule:nonzero;stroke:none"
             id="path12365"
             inkscape:connector-curvature="0" /></g></g></g><g
       id="g12367"><g
         id="g12369"
         clip-path="url(#clipPath12371)"><g
           id="g12375"
           transform="translate(185.9102,23.9385)"><path
             d="M 0,0 -0.49,-0.096"
             style="fill:none;stroke:#666666;stroke-width:0.5;stroke-linecap:butt;stroke-linejoin:miter;stroke-miterlimit:10;stroke-dasharray:none;stroke-opacity:1"
             id="path12377"
             inkscape:connector-curvature="0" /></g><g
           id="g12379"
           transform="translate(184.4473,68.4523)"><path
             d="M 0,0 -17.021,-3.33"
             style="fill:none;stroke:#666666;stroke-width:0.5;stroke-linecap:butt;stroke-linejoin:miter;stroke-miterlimit:10;stroke-dasharray:0.991, 0.991;stroke-dashoffset:0;stroke-opacity:1"
             id="path12381"
             inkscape:connector-curvature="0" /></g><g
           id="g12383"
           transform="translate(166.9395,20.228)"><path
             d="M 0,0 -0.49,-0.096"
             style="fill:none;stroke:#666666;stroke-width:0.5;stroke-linecap:butt;stroke-linejoin:miter;stroke-miterlimit:10;stroke-dasharray:none;stroke-opacity:1"
             id="path12385"
             inkscape:connector-curvature="0" /></g><g
           id="g12387"
           transform="translate(185.9102,82.9385)"><path
             d="M 0,0 -0.5,0"
             style="fill:none;stroke:#666666;stroke-width:0.5;stroke-linecap:butt;stroke-linejoin:miter;stroke-miterlimit:10;stroke-dasharray:none;stroke-opacity:1"
             id="path12389"
             inkscape:connector-curvature="0" /></g><g
           id="g12391"
           transform="translate(184.4385,82.9385)"><path
             d="M 0,0 -17.004,0"
             style="fill:none;stroke:#666666;stroke-width:0.5;stroke-linecap:butt;stroke-linejoin:miter;stroke-miterlimit:10;stroke-dasharray:0.972, 0.972;stroke-dashoffset:0;stroke-opacity:1"
             id="path12393"
             inkscape:connector-curvature="0" /></g><g
           id="g12395"
           transform="translate(166.9492,82.9385)"><path
             d="M 0,0 -0.5,0"
             style="fill:none;stroke:#666666;stroke-width:0.5;stroke-linecap:butt;stroke-linejoin:miter;stroke-miterlimit:10;stroke-dasharray:none;stroke-opacity:1"
             id="path12397"
             inkscape:connector-curvature="0" /></g></g></g></g></svg>