<?xml version="1.0" encoding="UTF-8" standalone="no"?>
<!-- Created with Inkscape (http://www.inkscape.org/) -->

<svg
   xmlns:dc="http://purl.org/dc/elements/1.1/"
   xmlns:cc="http://creativecommons.org/ns#"
   xmlns:rdf="http://www.w3.org/1999/02/22-rdf-syntax-ns#"
   xmlns:svg="http://www.w3.org/2000/svg"
   xmlns="http://www.w3.org/2000/svg"
   xmlns:sodipodi="http://sodipodi.sourceforge.net/DTD/sodipodi-0.dtd"
   xmlns:inkscape="http://www.inkscape.org/namespaces/inkscape"
   id="svg12230"
   version="1.1"
   inkscape:version="0.91 r13725"
   xml:space="preserve"
   width="311.81125"
   height="177.16499"
   viewBox="0 0 311.81125 177.16499"
   sodipodi:docname="NEW_histogram2.svg"><metadata
     id="metadata12236"><rdf:RDF><cc:Work
         rdf:about=""><dc:format>image/svg+xml</dc:format><dc:type
           rdf:resource="http://purl.org/dc/dcmitype/StillImage" /><dc:title></dc:title></cc:Work></rdf:RDF></metadata><defs
     id="defs12234"><clipPath
       clipPathUnits="userSpaceOnUse"
       id="clipPath12244"><path
         d="M 13.667,7.733 241.275,9.232 239.776,136.302 5.274,139.482 13.667,7.733 Z"
         id="path12246"
         inkscape:connector-curvature="0" /></clipPath><clipPath
       clipPathUnits="userSpaceOnUse"
       id="clipPath12252"><path
         d="m 20.627,57.8984 221.272,0 0,-37.4311 -221.272,0 0,37.4311 z"
         id="path12254"
         inkscape:connector-curvature="0" /></clipPath><clipPath
       clipPathUnits="userSpaceOnUse"
       id="clipPath12268"><path
         d="m 20.627,58.1484 205.522,0 0,-37.9311 -205.522,0 0,37.9311 z"
         id="path12270"
         inkscape:connector-curvature="0" /></clipPath><clipPath
       clipPathUnits="userSpaceOnUse"
       id="clipPath12284"><path
         d="m 0,141.732 249.449,0 L 249.449,0 0,0 0,141.732 Z"
         id="path12286"
         inkscape:connector-curvature="0" /></clipPath><clipPath
       clipPathUnits="userSpaceOnUse"
       id="clipPath12292"><path
         d="m 20.627,132.76 222.808,0 0,-112.2927 -222.808,0 0,112.2927 z"
         id="path12294"
         inkscape:connector-curvature="0" /></clipPath><clipPath
       clipPathUnits="userSpaceOnUse"
       id="clipPath12308"><path
         d="m 20.627,133.01 222.808,0 0,-112.7927 -222.808,0 0,112.7927 z"
         id="path12310"
         inkscape:connector-curvature="0" /></clipPath><clipPath
       clipPathUnits="userSpaceOnUse"
       id="clipPath12428"><path
         d="m 0,141.732 249.449,0 L 249.449,0 0,0 0,141.732 Z"
         id="path12430"
         inkscape:connector-curvature="0" /></clipPath><clipPath
       clipPathUnits="userSpaceOnUse"
       id="clipPath12504"><path
         d="m 0,141.732 249.449,0 L 249.449,0 0,0 0,141.732 Z"
         id="path12506"
         inkscape:connector-curvature="0" /></clipPath><clipPath
       clipPathUnits="userSpaceOnUse"
       id="clipPath12522"><path
         d="m 0,141.732 249.449,0 L 249.449,0 0,0 0,141.732 Z"
         id="path12524"
         inkscape:connector-curvature="0" /></clipPath><clipPath
       clipPathUnits="userSpaceOnUse"
       id="clipPath12530"><path
         d="m 33.0239,125.177 3.6934,0 0,-3.693 -3.6934,0 0,3.693 z"
         id="path12532"
         inkscape:connector-curvature="0" /></clipPath><clipPath
       clipPathUnits="userSpaceOnUse"
       id="clipPath12544"><path
         d="m 33.0239,136.302 3.6934,0 0,-3.693 -3.6934,0 0,3.693 z"
         id="path12546"
         inkscape:connector-curvature="0" /></clipPath></defs><sodipodi:namedview
     pagecolor="#ffffff"
     bordercolor="#666666"
     borderopacity="1"
     objecttolerance="10"
     gridtolerance="10"
     guidetolerance="10"
     inkscape:pageopacity="0"
     inkscape:pageshadow="2"
     inkscape:window-width="1341"
     inkscape:window-height="639"
     id="namedview12232"
     showgrid="false"
     inkscape:zoom="8.9541349"
     inkscape:cx="84.51887"
     inkscape:cy="52.844818"
     inkscape:window-x="0"
     inkscape:window-y="0"
     inkscape:window-maximized="0"
     inkscape:current-layer="g12238" /><g
     id="g12238"
     inkscape:groupmode="layer"
     inkscape:label="NEW_histogram2"
     transform="matrix(1.25,0,0,-1.25,0,177.165)"><g
       id="g12240"><g
         id="g12242"
         clip-path="url(#clipPath12244)"><g
           id="g12248"><g
             id="g12250" /><g
             id="g12256"><g
               clip-path="url(#clipPath12252)"
               id="g12258"
               style="opacity:0.5"><g
                 transform="translate(20.627,20.4673)"
                 id="g12260"><path
                   d="m 0,0 19.281,0 0,24.954 1.286,0 0,-24.954 3.856,0 0,12.477 2.571,0 0,-12.477 3.857,0 0,12.477 1.285,0 0,-12.477 1.286,0 0,12.477 1.285,0 0,-12.477 16.711,0 0,12.477 1.285,0 0,-12.477 11.569,0 0,12.477 1.287,0 0,-12.477 5.141,0 0,12.477 1.285,0 0,-12.477 11.57,0 0,12.477 1.285,0 0,-12.477 56.559,0 0,12.477 1.286,0 0,-12.477 2.572,0 0,24.954 1.285,0 0,-12.477 1.287,0 0,12.477 1.285,0 0,-24.954 2.57,0 0,24.954 1.286,0 0,-12.477 2.57,0 0,12.477 1.286,0 0,12.477 1.285,0 0,-12.477 1.285,0 0,12.477 1.287,0 0,-37.431 1.286,0 0,12.477 3.854,0 0,-12.477 6.429,0 0,24.954 1.285,0 0,-24.954 1.285,0 0,12.477 2.572,0 0,-12.477 43.878,0 L 0,0 Z"
                   style="fill:#0000ff;fill-opacity:1;fill-rule:nonzero;stroke:none"
                   id="path12262"
                   inkscape:connector-curvature="0" /></g></g></g></g><g
           id="g12264"><g
             id="g12266" /><g
             id="g12272"><g
               clip-path="url(#clipPath12268)"
               id="g12274"
               style="opacity:0.5"><g
                 transform="translate(20.627,20.4673)"
                 id="g12276"><path
                   d="m 0,0 19.281,0 0,24.954 1.286,0 0,-24.954 3.856,0 0,12.477 2.571,0 0,-12.477 3.857,0 0,12.477 1.285,0 0,-12.477 1.286,0 0,12.477 1.285,0 0,-12.477 16.711,0 0,12.477 1.285,0 0,-12.477 11.569,0 0,12.477 1.287,0 0,-12.477 5.141,0 0,12.477 1.285,0 0,-12.477 11.57,0 0,12.477 1.285,0 0,-12.477 56.559,0 0,12.477 1.286,0 0,-12.477 2.572,0 0,24.954 1.285,0 0,-12.477 1.287,0 0,12.477 1.285,0 0,-24.954 2.57,0 0,24.954 1.286,0 0,-12.477 2.57,0 0,12.477 1.286,0 0,12.477 1.285,0 0,-12.477 1.285,0 0,12.477 1.287,0 0,-37.431 1.286,0 0,12.477 3.854,0 0,-12.477 6.429,0 0,24.954 1.285,0 0,-24.954 1.285,0 0,12.477 2.572,0 0,-12.477 28.128,0 L 0,0 Z"
                   style="fill:none;stroke:#000000;stroke-width:0.5;stroke-linecap:butt;stroke-linejoin:miter;stroke-miterlimit:10;stroke-dasharray:none;stroke-opacity:1"
                   id="path12278"
                   inkscape:connector-curvature="0" /></g></g></g></g></g></g><g
       id="g12280"><g
         id="g12282"
         clip-path="url(#clipPath12284)"><g
           id="g12288"><g
             id="g12290" /><g
             id="g12296"><g
               clip-path="url(#clipPath12292)"
               id="g12298"
               style="opacity:0.5"><g
                 transform="translate(20.627,20.4673)"
                 id="g12300"><path
                   d="m 0,0 179.963,0 0,12.477 2.573,0 0,12.477 1.284,0 0,-12.477 2.572,0 0,12.477 2.57,0 0,87.339 1.286,0 0,-12.477 1.285,0 0,-37.431 1.286,0 0,-37.431 2.571,0 0,-24.954 1.286,0 0,12.477 1.285,0 0,-12.477 24.847,0 L 0,0 Z"
                   style="fill:#ff0000;fill-opacity:1;fill-rule:nonzero;stroke:none"
                   id="path12302"
                   inkscape:connector-curvature="0" /></g></g></g></g><g
           id="g12304"><g
             id="g12306" /><g
             id="g12312"><g
               clip-path="url(#clipPath12308)"
               id="g12314"
               style="opacity:0.5"><g
                 transform="translate(20.627,20.4673)"
                 id="g12316"><path
                   d="m 0,0 179.963,0 0,12.477 2.573,0 0,12.477 1.284,0 0,-12.477 2.572,0 0,12.477 2.57,0 0,87.339 1.286,0 0,-12.477 1.285,0 0,-37.431 1.286,0 0,-37.431 2.571,0 0,-24.954 1.286,0 0,12.477 1.285,0 0,-12.477 24.847,0 L 0,0 Z"
                   style="fill:none;stroke:#000000;stroke-width:0.5;stroke-linecap:butt;stroke-linejoin:miter;stroke-miterlimit:10;stroke-dasharray:none;stroke-opacity:1"
                   id="path12318"
                   inkscape:connector-curvature="0" /></g></g></g></g></g></g><g
       id="g12320"
       transform="translate(20.627,20.4673)"><path
         d="M 0,0 223.831,0"
         style="fill:none;stroke:#000000;stroke-width:0.5;stroke-linecap:square;stroke-linejoin:miter;stroke-miterlimit:10;stroke-dasharray:none;stroke-opacity:1"
         id="path12322"
         inkscape:connector-curvature="0" /></g><g
       id="g12324"
       transform="translate(20.627,20.4673)"><path
         d="M 0,0 0,117.64"
         style="fill:none;stroke:#000000;stroke-width:0.5;stroke-linecap:square;stroke-linejoin:miter;stroke-miterlimit:10;stroke-dasharray:none;stroke-opacity:1"
         id="path12326"
         inkscape:connector-curvature="0" /></g><g
       id="g12328"
       transform="translate(20.6271,20.4669)"><path
         d="M 0,0 0,0.787 0,0 Z"
         style="fill:#000000;fill-opacity:1;fill-rule:nonzero;stroke:none"
         id="path12330"
         inkscape:connector-curvature="0" /></g><g
       id="g12332"
       transform="translate(20.627,20.4673)"><path
         d="M 0,0 0,0.786"
         style="fill:none;stroke:#000000;stroke-width:0.5;stroke-linecap:butt;stroke-linejoin:round;stroke-miterlimit:10;stroke-dasharray:none;stroke-opacity:1"
         id="path12334"
         inkscape:connector-curvature="0" /></g><text
       transform="matrix(1,0,0,-1,13.6665,12.0488)"
       style="font-variant:normal;font-weight:normal;font-stretch:normal;font-size:8px;font-family:'Museo Sans 500';-inkscape-font-specification:MuseoSans-500;writing-mode:lr-tb;fill:#000000;fill-opacity:1;fill-rule:nonzero;stroke:none"
       id="text12336"><tspan
         x="0 4.9039998 9.6960001"
         y="0"
         sodipodi:role="line"
         id="tspan12338">−60</tspan></text>
<g
       id="g12340"
       transform="translate(52.6023,20.4669)"><path
         d="M 0,0 0,0.787 0,0 Z"
         style="fill:#000000;fill-opacity:1;fill-rule:nonzero;stroke:none"
         id="path12342"
         inkscape:connector-curvature="0" /></g><g
       id="g12344"
       transform="translate(52.6021,20.4673)"><path
         d="M 0,0 0,0.786"
         style="fill:none;stroke:#000000;stroke-width:0.5;stroke-linecap:butt;stroke-linejoin:round;stroke-miterlimit:10;stroke-dasharray:none;stroke-opacity:1"
         id="path12346"
         inkscape:connector-curvature="0" /></g><text
       transform="matrix(1,0,0,-1,44.9644,12.0488)"
       style="font-variant:normal;font-weight:normal;font-stretch:normal;font-size:8px;font-family:'Museo Sans 500';-inkscape-font-specification:MuseoSans-500;writing-mode:lr-tb;fill:#000000;fill-opacity:1;fill-rule:nonzero;stroke:none"
       id="text12348"><tspan
         x="0 4.9039998 9.408"
         y="0"
         sodipodi:role="line"
         id="tspan12350">−50</tspan></text>
<g
       id="g12352"
       transform="translate(84.5784,20.4669)"><path
         d="M 0,0 0,0.787 0,0 Z"
         style="fill:#000000;fill-opacity:1;fill-rule:nonzero;stroke:none"
         id="path12354"
         inkscape:connector-curvature="0" /></g><g
       id="g12356"
       transform="translate(84.5786,20.4673)"><path
         d="M 0,0 0,0.786"
         style="fill:none;stroke:#000000;stroke-width:0.5;stroke-linecap:butt;stroke-linejoin:round;stroke-miterlimit:10;stroke-dasharray:none;stroke-opacity:1"
         id="path12358"
         inkscape:connector-curvature="0" /></g><text
       transform="matrix(1,0,0,-1,76.9829,12.0488)"
       style="font-variant:normal;font-weight:normal;font-stretch:normal;font-size:8px;font-family:'Museo Sans 500';-inkscape-font-specification:MuseoSans-500;writing-mode:lr-tb;fill:#000000;fill-opacity:1;fill-rule:nonzero;stroke:none"
       id="text12360"><tspan
         x="0 4.9039998 9.7519999"
         y="0"
         sodipodi:role="line"
         id="tspan12362">−40</tspan></text>
<g
       id="g12364"
       transform="translate(116.5536,20.4669)"><path
         d="M 0,0 0,0.787 0,0 Z"
         style="fill:#000000;fill-opacity:1;fill-rule:nonzero;stroke:none"
         id="path12366"
         inkscape:connector-curvature="0" /></g><g
       id="g12368"
       transform="translate(116.5537,20.4673)"><path
         d="M 0,0 0,0.786"
         style="fill:none;stroke:#000000;stroke-width:0.5;stroke-linecap:butt;stroke-linejoin:round;stroke-miterlimit:10;stroke-dasharray:none;stroke-opacity:1"
         id="path12370"
         inkscape:connector-curvature="0" /></g><text
       transform="matrix(1,0,0,-1,109.0015,12.0488)"
       style="font-variant:normal;font-weight:normal;font-stretch:normal;font-size:8px;font-family:'Museo Sans 500';-inkscape-font-specification:MuseoSans-500;writing-mode:lr-tb;fill:#000000;fill-opacity:1;fill-rule:nonzero;stroke:none"
       id="text12372"><tspan
         x="0 4.9039998 9.4399996"
         y="0"
         sodipodi:role="line"
         id="tspan12374">−30</tspan></text>
<g
       id="g12376"
       transform="translate(148.5297,20.4669)"><path
         d="M 0,0 0,0.787 0,0 Z"
         style="fill:#000000;fill-opacity:1;fill-rule:nonzero;stroke:none"
         id="path12378"
         inkscape:connector-curvature="0" /></g><g
       id="g12380"
       transform="translate(148.5293,20.4673)"><path
         d="M 0,0 0,0.786"
         style="fill:none;stroke:#000000;stroke-width:0.5;stroke-linecap:butt;stroke-linejoin:round;stroke-miterlimit:10;stroke-dasharray:none;stroke-opacity:1"
         id="path12382"
         inkscape:connector-curvature="0" /></g><text
       transform="matrix(1,0,0,-1,140.4307,12.0488)"
       style="font-variant:normal;font-weight:normal;font-stretch:normal;font-size:8px;font-family:'Museo Sans 500';-inkscape-font-specification:MuseoSans-500;writing-mode:lr-tb;fill:#000000;fill-opacity:1;fill-rule:nonzero;stroke:none"
       id="text12384"><tspan
         x="0 4.9039998 9.4799995"
         y="0"
         sodipodi:role="line"
         id="tspan12386">−20</tspan></text>
<g
       id="g12388"
       transform="translate(180.5058,20.4669)"><path
         d="M 0,0 0,0.787 0,0 Z"
         style="fill:#000000;fill-opacity:1;fill-rule:nonzero;stroke:none"
         id="path12390"
         inkscape:connector-curvature="0" /></g><g
       id="g12392"
       transform="translate(180.5059,20.4673)"><path
         d="M 0,0 0,0.786"
         style="fill:none;stroke:#000000;stroke-width:0.5;stroke-linecap:butt;stroke-linejoin:round;stroke-miterlimit:10;stroke-dasharray:none;stroke-opacity:1"
         id="path12394"
         inkscape:connector-curvature="0" /></g><text
       transform="matrix(1,0,0,-1,173.2334,12.0488)"
       style="font-variant:normal;font-weight:normal;font-stretch:normal;font-size:8px;font-family:'Museo Sans 500';-inkscape-font-specification:MuseoSans-500;writing-mode:lr-tb;fill:#000000;fill-opacity:1;fill-rule:nonzero;stroke:none"
       id="text12396"><tspan
         x="0 4.9039998 8.816"
         y="0"
         sodipodi:role="line"
         id="tspan12398">−10</tspan></text>
<g
       id="g12400"
       transform="translate(212.4828,20.4669)"><path
         d="M 0,0 0,0.787 0,0 Z"
         style="fill:#000000;fill-opacity:1;fill-rule:nonzero;stroke:none"
         id="path12402"
         inkscape:connector-curvature="0" /></g><g
       id="g12404"
       transform="translate(212.4824,20.4673)"><path
         d="M 0,0 0,0.786"
         style="fill:none;stroke:#000000;stroke-width:0.5;stroke-linecap:butt;stroke-linejoin:round;stroke-miterlimit:10;stroke-dasharray:none;stroke-opacity:1"
         id="path12406"
         inkscape:connector-curvature="0" /></g><text
       transform="matrix(1,0,0,-1,209.917,12.0488)"
       style="font-variant:normal;font-weight:normal;font-stretch:normal;font-size:8px;font-family:'Museo Sans 500';-inkscape-font-specification:MuseoSans-500;writing-mode:lr-tb;fill:#000000;fill-opacity:1;fill-rule:nonzero;stroke:none"
       id="text12408"><tspan
         x="0"
         y="0"
         id="tspan12410">0</tspan></text>
<g
       id="g12412"
       transform="translate(244.458,20.4669)"><path
         d="M 0,0 0,0.787 0,0 Z"
         style="fill:#000000;fill-opacity:1;fill-rule:nonzero;stroke:none"
         id="path12414"
         inkscape:connector-curvature="0" /></g><g
       id="g12416"
       transform="translate(244.458,20.4673)"><path
         d="M 0,0 0,0.786"
         style="fill:none;stroke:#000000;stroke-width:0.5;stroke-linecap:butt;stroke-linejoin:round;stroke-miterlimit:10;stroke-dasharray:none;stroke-opacity:1"
         id="path12418"
         inkscape:connector-curvature="0" /></g><text
       transform="matrix(1,0,0,-1,239.7764,12.0488)"
       style="font-variant:normal;font-weight:normal;font-stretch:normal;font-size:8px;font-family:'Museo Sans 500';-inkscape-font-specification:MuseoSans-500;writing-mode:lr-tb;fill:#000000;fill-opacity:1;fill-rule:nonzero;stroke:none"
       id="text12420"><tspan
         x="0 3.9119999"
         y="0"
         sodipodi:role="line"
         id="tspan12422">10</tspan></text>
<g
       id="g12424"><g
         id="g12426"
         clip-path="url(#clipPath12428)"><text
           transform="matrix(1,0,0,-1,81.8706,3.1875)"
           style="font-variant:normal;font-weight:normal;font-stretch:normal;font-size:8px;font-family:Arial;-inkscape-font-specification:ArialMT;writing-mode:lr-tb;fill:#000000;fill-opacity:1;fill-rule:nonzero;stroke:none"
           id="text12432"><tspan
             x="0 5.336 9.3360004 13.336 15.112 17.336 21.784 24.007999 25.784 30.232 34.68 36.903999 42.240002 46.688 51.136002 53.799999 58.248001 62.248001 64.472 69.807999 72.472 75.136002 79.584 82.248001 84.472 87.136002 91.584 96.919998"
             y="0"
             sodipodi:role="line"
             id="tspan12434">Excitation Energy Error (eV)</tspan></text>
</g></g><g
       id="g12436"
       transform="translate(20.6271,20.4669)"><path
         d="M 0,0 0.766,0 0,0 Z"
         style="fill:#000000;fill-opacity:1;fill-rule:nonzero;stroke:none"
         id="path12438"
         inkscape:connector-curvature="0" /></g><g
       id="g12440"
       transform="translate(20.627,20.4673)"><path
         d="M 0,0 0.766,0"
         style="fill:none;stroke:#000000;stroke-width:0.5;stroke-linecap:butt;stroke-linejoin:round;stroke-miterlimit:10;stroke-dasharray:none;stroke-opacity:1"
         id="path12442"
         inkscape:connector-curvature="0" /></g><g
       id="g12444"
       transform="translate(243.6912,20.4669)"><path
         d="M 0,0 0.767,0 0,0 Z"
         style="fill:#000000;fill-opacity:1;fill-rule:nonzero;stroke:none"
         id="path12446"
         inkscape:connector-curvature="0" /></g><g
       id="g12448"
       transform="translate(244.458,20.4673)"><path
         d="M 0,0 -0.767,0"
         style="fill:none;stroke:#000000;stroke-width:0.5;stroke-linecap:butt;stroke-linejoin:round;stroke-miterlimit:10;stroke-dasharray:none;stroke-opacity:1"
         id="path12450"
         inkscape:connector-curvature="0" /></g><g
       id="g12452"
       transform="translate(20.6271,45.4212)"><path
         d="M 0,0 0.766,0 0,0 Z"
         style="fill:#000000;fill-opacity:1;fill-rule:nonzero;stroke:none"
         id="path12454"
         inkscape:connector-curvature="0" /></g><g
       id="g12456"
       transform="translate(20.627,45.4209)"><path
         d="M 0,0 0.766,0"
         style="fill:none;stroke:#000000;stroke-width:0.5;stroke-linecap:butt;stroke-linejoin:round;stroke-miterlimit:10;stroke-dasharray:none;stroke-opacity:1"
         id="path12458"
         inkscape:connector-curvature="0" /></g><text
       transform="matrix(1,0,0,-1,14.521,43.1211)"
       style="font-variant:normal;font-weight:normal;font-stretch:normal;font-size:8px;font-family:'Museo Sans 500';-inkscape-font-specification:MuseoSans-500;writing-mode:lr-tb;fill:#000000;fill-opacity:1;fill-rule:nonzero;stroke:none"
       id="text12460"><tspan
         x="0"
         y="0"
         id="tspan12462">2</tspan></text>
<g
       id="g12464"
       transform="translate(20.6271,70.3746)"><path
         d="M 0,0 0.766,0 0,0 Z"
         style="fill:#000000;fill-opacity:1;fill-rule:nonzero;stroke:none"
         id="path12466"
         inkscape:connector-curvature="0" /></g><g
       id="g12468"
       transform="translate(20.627,70.375)"><path
         d="M 0,0 0.766,0"
         style="fill:none;stroke:#000000;stroke-width:0.5;stroke-linecap:butt;stroke-linejoin:round;stroke-miterlimit:10;stroke-dasharray:none;stroke-opacity:1"
         id="path12470"
         inkscape:connector-curvature="0" /></g><text
       transform="matrix(1,0,0,-1,14.2681,68.0752)"
       style="font-variant:normal;font-weight:normal;font-stretch:normal;font-size:8px;font-family:'Museo Sans 500';-inkscape-font-specification:MuseoSans-500;writing-mode:lr-tb;fill:#000000;fill-opacity:1;fill-rule:nonzero;stroke:none"
       id="text12472"><tspan
         x="0"
         y="0"
         id="tspan12474">4</tspan></text>
<g
       id="g12476"
       transform="translate(20.6271,95.3289)"><path
         d="M 0,0 0.766,0 0,0 Z"
         style="fill:#000000;fill-opacity:1;fill-rule:nonzero;stroke:none"
         id="path12478"
         inkscape:connector-curvature="0" /></g><g
       id="g12480"
       transform="translate(20.627,95.3291)"><path
         d="M 0,0 0.766,0"
         style="fill:none;stroke:#000000;stroke-width:0.5;stroke-linecap:butt;stroke-linejoin:round;stroke-miterlimit:10;stroke-dasharray:none;stroke-opacity:1"
         id="path12482"
         inkscape:connector-curvature="0" /></g><text
       transform="matrix(1,0,0,-1,14.3521,93.0752)"
       style="font-variant:normal;font-weight:normal;font-stretch:normal;font-size:8px;font-family:'Museo Sans 500';-inkscape-font-specification:MuseoSans-500;writing-mode:lr-tb;fill:#000000;fill-opacity:1;fill-rule:nonzero;stroke:none"
       id="text12484"><tspan
         x="0"
         y="0"
         id="tspan12486">6</tspan></text>
<g
       id="g12488"
       transform="translate(20.6271,120.2832)"><path
         d="M 0,0 0.766,0 0,0 Z"
         style="fill:#000000;fill-opacity:1;fill-rule:nonzero;stroke:none"
         id="path12490"
         inkscape:connector-curvature="0" /></g><g
       id="g12492"
       transform="translate(20.627,120.2832)"><path
         d="M 0,0 0.766,0"
         style="fill:none;stroke:#000000;stroke-width:0.5;stroke-linecap:butt;stroke-linejoin:round;stroke-miterlimit:10;stroke-dasharray:none;stroke-opacity:1"
         id="path12494"
         inkscape:connector-curvature="0" /></g><text
       transform="matrix(1,0,0,-1,14.3726,118.0293)"
       style="font-variant:normal;font-weight:normal;font-stretch:normal;font-size:8px;font-family:'Museo Sans 500';-inkscape-font-specification:MuseoSans-500;writing-mode:lr-tb;fill:#000000;fill-opacity:1;fill-rule:nonzero;stroke:none"
       id="text12496"><tspan
         x="0"
         y="0"
         id="tspan12498">8</tspan></text>
<g
       id="g12500"><g
         id="g12502"
         clip-path="url(#clipPath12504)"><text
           transform="matrix(0,1,1,0,7.3398,60.5322)"
           style="font-variant:normal;font-weight:normal;font-stretch:normal;font-size:8px;font-family:'Museo Sans 500';-inkscape-font-specification:MuseoSans-500;writing-mode:lr-tb;fill:#000000;fill-opacity:1;fill-rule:nonzero;stroke:none"
           id="text12508"><tspan
             x="0 4.112 7.0879998 11.528 16.336 21.120001 25.559999 30.384001 34.759998"
             y="0"
             sodipodi:role="line"
             id="tspan12510">Frequency</tspan></text>
</g></g><text
       transform="matrix(1,0,0,-1,41.1455,131.7246)"
       style="font-variant:normal;font-weight:normal;font-stretch:normal;font-size:8px;font-family:'Museo Sans 500';-inkscape-font-specification:MuseoSans-500;writing-mode:lr-tb;fill:#000000;fill-opacity:1;fill-rule:nonzero;stroke:none"
       id="text12512"><tspan
         x="0 6.5679998 12.344 18.264 22.431999"
         y="0"
         sodipodi:role="line"
         id="tspan12514">OCDFT (B3LYP/DKH2 1s Corrections)</tspan><tspan
         x="1.312 6.0560002 11.976 17.896 22.063999"
         y="11.176"
         sodipodi:role="line"
         id="tspan12516">TDDFT (B3LYP/DKH)</tspan></text>
<g
       id="g12518"><g
         id="g12520"
         clip-path="url(#clipPath12522)"><g
           id="g12526"><g
             id="g12528" /><g
             id="g12534"><g
               clip-path="url(#clipPath12530)"
               id="g12536"
               style="opacity:0.5"><path
                 d="m 36.717,121.484 -3.693,0 0,3.693 3.693,0 0,-3.693 z"
                 style="fill:#0000ff;fill-opacity:1;fill-rule:nonzero;stroke:none"
                 id="path12538"
                 inkscape:connector-curvature="0" /></g></g></g><g
           id="g12540"><g
             id="g12542" /><g
             id="g12548"><g
               clip-path="url(#clipPath12544)"
               id="g12550"
               style="opacity:0.5"><path
                 d="m 36.717,132.609 -3.693,0 0,3.693 3.693,0 0,-3.693 z"
                 style="fill:#ff0000;fill-opacity:1;fill-rule:nonzero;stroke:none"
                 id="path12552"
                 inkscape:connector-curvature="0" /></g></g></g></g></g></g></svg>