<?xml version="1.0" encoding="UTF-8" standalone="no"?>
<!-- Created with Inkscape (http://www.inkscape.org/) -->

<svg
   xmlns:dc="http://purl.org/dc/elements/1.1/"
   xmlns:cc="http://creativecommons.org/ns#"
   xmlns:rdf="http://www.w3.org/1999/02/22-rdf-syntax-ns#"
   xmlns:svg="http://www.w3.org/2000/svg"
   xmlns="http://www.w3.org/2000/svg"
   xmlns:sodipodi="http://sodipodi.sourceforge.net/DTD/sodipodi-0.dtd"
   xmlns:inkscape="http://www.inkscape.org/namespaces/inkscape"
   id="svg12230"
   version="1.1"
   inkscape:version="0.91 r13725"
   xml:space="preserve"
   width="104.5001mm"
   height="35.4664mm"
   viewBox="0 0 370.276 125.66836"
   sodipodi:docname="rudenberg_quote.svg"><metadata
     id="metadata12236"><rdf:RDF><cc:Work
         rdf:about=""><dc:format>image/svg+xml</dc:format><dc:type
           rdf:resource="http://purl.org/dc/dcmitype/StillImage" /><dc:title></dc:title></cc:Work></rdf:RDF></metadata><defs
     id="defs12234"><clipPath
       clipPathUnits="userSpaceOnUse"
       id="clipPath12244"><path
         d="M 13.667,7.733 241.275,9.232 239.776,136.302 5.274,139.482 13.667,7.733 Z"
         id="path12246"
         inkscape:connector-curvature="0" /></clipPath><clipPath
       clipPathUnits="userSpaceOnUse"
       id="clipPath12252"><path
         d="m 20.627,57.8984 221.272,0 0,-37.4311 -221.272,0 0,37.4311 z"
         id="path12254"
         inkscape:connector-curvature="0" /></clipPath><clipPath
       clipPathUnits="userSpaceOnUse"
       id="clipPath12268"><path
         d="m 20.627,58.1484 205.522,0 0,-37.9311 -205.522,0 0,37.9311 z"
         id="path12270"
         inkscape:connector-curvature="0" /></clipPath><clipPath
       clipPathUnits="userSpaceOnUse"
       id="clipPath12284"><path
         d="m 0,141.732 249.449,0 L 249.449,0 0,0 0,141.732 Z"
         id="path12286"
         inkscape:connector-curvature="0" /></clipPath><clipPath
       clipPathUnits="userSpaceOnUse"
       id="clipPath12292"><path
         d="m 20.627,132.76 222.808,0 0,-112.2927 -222.808,0 0,112.2927 z"
         id="path12294"
         inkscape:connector-curvature="0" /></clipPath><clipPath
       clipPathUnits="userSpaceOnUse"
       id="clipPath12308"><path
         d="m 20.627,133.01 222.808,0 0,-112.7927 -222.808,0 0,112.7927 z"
         id="path12310"
         inkscape:connector-curvature="0" /></clipPath><clipPath
       clipPathUnits="userSpaceOnUse"
       id="clipPath12428"><path
         d="m 0,141.732 249.449,0 L 249.449,0 0,0 0,141.732 Z"
         id="path12430"
         inkscape:connector-curvature="0" /></clipPath><clipPath
       clipPathUnits="userSpaceOnUse"
       id="clipPath12504"><path
         d="m 0,141.732 249.449,0 L 249.449,0 0,0 0,141.732 Z"
         id="path12506"
         inkscape:connector-curvature="0" /></clipPath><clipPath
       clipPathUnits="userSpaceOnUse"
       id="clipPath12522"><path
         d="m 0,141.732 249.449,0 L 249.449,0 0,0 0,141.732 Z"
         id="path12524"
         inkscape:connector-curvature="0" /></clipPath><clipPath
       clipPathUnits="userSpaceOnUse"
       id="clipPath12530"><path
         d="m 33.0239,125.177 3.6934,0 0,-3.693 -3.6934,0 0,3.693 z"
         id="path12532"
         inkscape:connector-curvature="0" /></clipPath><clipPath
       clipPathUnits="userSpaceOnUse"
       id="clipPath12544"><path
         d="m 33.0239,136.302 3.6934,0 0,-3.693 -3.6934,0 0,3.693 z"
         id="path12546"
         inkscape:connector-curvature="0" /></clipPath><clipPath
       id="clipPath15475"
       clipPathUnits="userSpaceOnUse"><path
         inkscape:connector-curvature="0"
         id="path15477"
         d="m 87.197,148.513 c -2.691,-1.125 -17.214,-7.195 -20.849,-21.939 l 0,0 c -0.614,-2.491 -3.317,-13.457 3.598,-21.311 l 0,0 c 6.612,-7.508 17.153,-6.651 19,-6.5 l 0,0 c 14.324,1.166 24.295,14.485 27.758,25.594 l 0,0 c 0.363,1.164 1.025,3.289 1.534,5.876 l 0,0 0,12.171 c -0.598,2.155 -1.633,4.177 -3.292,5.859 l 0,0 c -3,3.045 -7.138,4.056 -11.313,4.056 l 0,0 c -7.334,0.001 -14.789,-3.116 -16.436,-3.806" /></clipPath><clipPath
       id="clipPath15489"
       clipPathUnits="userSpaceOnUse"><path
         inkscape:connector-curvature="0"
         id="path15491"
         d="m 191.894,322.987 45.125,0 0,37.699 -45.125,0 0,-37.699 z" /></clipPath><clipPath
       id="clipPath15503"
       clipPathUnits="userSpaceOnUse"><path
         inkscape:connector-curvature="0"
         id="path15505"
         d="m 246.297,322.991 45.117,0 0,39.406 -45.117,0 0,-39.406 z" /></clipPath><clipPath
       id="clipPath15517"
       clipPathUnits="userSpaceOnUse"><path
         inkscape:connector-curvature="0"
         id="path15519"
         d="m 299.097,322.991 45.118,0 0,39.406 -45.118,0 0,-39.406 z" /></clipPath><clipPath
       id="clipPath15531"
       clipPathUnits="userSpaceOnUse"><path
         inkscape:connector-curvature="0"
         id="path15533"
         d="m 353.496,322.991 45.117,0 0,39.406 -45.117,0 0,-39.406 z" /></clipPath><clipPath
       id="clipPath15545"
       clipPathUnits="userSpaceOnUse"><path
         inkscape:connector-curvature="0"
         id="path15547"
         d="m 132.797,322.979 40.574,0 0,37.715 -40.574,0 0,-37.715 z" /></clipPath><clipPath
       id="clipPath15559"
       clipPathUnits="userSpaceOnUse"><path
         inkscape:connector-curvature="0"
         id="path15561"
         d="m 26.452,264.733 43.234,0 0,29.293 -43.234,0 0,-29.293 z" /></clipPath><clipPath
       id="clipPath15573"
       clipPathUnits="userSpaceOnUse"><path
         inkscape:connector-curvature="0"
         id="path15575"
         d="m 73.468,283.064 38.387,0 0,36.566 -38.387,0 0,-36.566 z" /></clipPath><clipPath
       id="clipPath15587"
       clipPathUnits="userSpaceOnUse"><path
         inkscape:connector-curvature="0"
         id="path15589"
         d="m 74.475,245.246 32.729,0 0,25.859 -32.729,0 0,-25.859 z" /></clipPath><clipPath
       id="clipPath15601"
       clipPathUnits="userSpaceOnUse"><path
         inkscape:connector-curvature="0"
         id="path15603"
         d="m 30.695,222.842 34.75,0 0,28.688 -34.75,0 0,-28.688 z" /></clipPath><clipPath
       id="clipPath15615"
       clipPathUnits="userSpaceOnUse"><path
         inkscape:connector-curvature="0"
         id="path15617"
         d="m 73.468,202.528 31.313,0 0,27.476 -31.313,0 0,-27.476 z" /></clipPath><clipPath
       id="clipPath15629"
       clipPathUnits="userSpaceOnUse"><path
         inkscape:connector-curvature="0"
         id="path15631"
         d="m 0,375.294 450,0 L 450,0 0,0 0,375.294 Z" /></clipPath><clipPath
       id="clipPath15799"
       clipPathUnits="userSpaceOnUse"><path
         inkscape:connector-curvature="0"
         id="path15801"
         d="m 0,375.294 450,0 L 450,0 0,0 0,375.294 Z" /></clipPath><clipPath
       id="clipPath15823"
       clipPathUnits="userSpaceOnUse"><path
         inkscape:connector-curvature="0"
         id="path15825"
         d="m 243.67,132.516 50.372,0 0,62.796 -50.372,0 0,-62.796 z" /></clipPath><clipPath
       id="clipPath15835"
       clipPathUnits="userSpaceOnUse"><path
         inkscape:connector-curvature="0"
         id="path15837"
         d="m 296.472,132.516 50.372,0 0,62.796 -50.372,0 0,-62.796 z" /></clipPath><clipPath
       id="clipPath15847"
       clipPathUnits="userSpaceOnUse"><path
         inkscape:connector-curvature="0"
         id="path15849"
         d="m 350.867,132.916 50.373,0 0,62.796 -50.373,0 0,-62.796 z" /></clipPath><clipPath
       id="clipPath15859"
       clipPathUnits="userSpaceOnUse"><path
         inkscape:connector-curvature="0"
         id="path15861"
         d="m 128.861,132.916 49.411,0 0,62.796 -49.411,0 0,-62.796 z" /></clipPath><clipPath
       id="clipPath15871"
       clipPathUnits="userSpaceOnUse"><path
         inkscape:connector-curvature="0"
         id="path15873"
         d="m 191.894,142.671 47.818,0 0,47.098 -47.818,0 0,-47.098 z" /></clipPath><clipPath
       id="clipPath15883"
       clipPathUnits="userSpaceOnUse"><path
         inkscape:connector-curvature="0"
         id="path15885"
         d="m 0,375.294 450,0 L 450,0 0,0 0,375.294 Z" /></clipPath><clipPath
       id="clipPath16063"
       clipPathUnits="userSpaceOnUse"><path
         inkscape:connector-curvature="0"
         id="path16065"
         d="m 0,375.294 450,0 L 450,0 0,0 0,375.294 Z" /></clipPath><clipPath
       id="clipPath16087"
       clipPathUnits="userSpaceOnUse"><path
         inkscape:connector-curvature="0"
         id="path16089"
         d="m 0,375.294 450,0 L 450,0 0,0 0,375.294 Z" /></clipPath><clipPath
       id="clipPath16111"
       clipPathUnits="userSpaceOnUse"><path
         inkscape:connector-curvature="0"
         id="path16113"
         d="m 0,375.294 450,0 L 450,0 0,0 0,375.294 Z" /></clipPath><clipPath
       id="clipPath16135"
       clipPathUnits="userSpaceOnUse"><path
         inkscape:connector-curvature="0"
         id="path16137"
         d="m 0,375.294 450,0 L 450,0 0,0 0,375.294 Z" /></clipPath><clipPath
       id="clipPath16159"
       clipPathUnits="userSpaceOnUse"><path
         inkscape:connector-curvature="0"
         id="path16161"
         d="m 0,375.294 450,0 L 450,0 0,0 0,375.294 Z" /></clipPath><clipPath
       id="clipPath16183"
       clipPathUnits="userSpaceOnUse"><path
         inkscape:connector-curvature="0"
         id="path16185"
         d="m 0,375.294 450,0 L 450,0 0,0 0,375.294 Z" /></clipPath><clipPath
       id="clipPath16207"
       clipPathUnits="userSpaceOnUse"><path
         inkscape:connector-curvature="0"
         id="path16209"
         d="m 0,375.294 450,0 L 450,0 0,0 0,375.294 Z" /></clipPath><clipPath
       id="clipPath16231"
       clipPathUnits="userSpaceOnUse"><path
         inkscape:connector-curvature="0"
         id="path16233"
         d="m 0,375.294 450,0 L 450,0 0,0 0,375.294 Z" /></clipPath><clipPath
       id="clipPath16255"
       clipPathUnits="userSpaceOnUse"><path
         inkscape:connector-curvature="0"
         id="path16257"
         d="m 0,375.294 450,0 L 450,0 0,0 0,375.294 Z" /></clipPath><clipPath
       id="clipPath16271"
       clipPathUnits="userSpaceOnUse"><path
         inkscape:connector-curvature="0"
         id="path16273"
         d="m 49.608,126.202 c -4.665,-0.154 -5.349,-3.655 -17.5,-14.5 l 0,0 c -10.123,-9.036 -12.817,-9.436 -14.75,-14.5 l 0,0 C 17.08,96.473 13.242,85.903 19.859,78.451 l 0,0 c 3.842,-4.328 9.881,-6.105 14.999,-5.249 l 0,0 c 3.976,0.664 6.584,2.779 16,13.999 l 0,0 c 13.077,15.583 14.919,19.692 15.096,21.71 l 0,0 0,0.79 c -0.543,8.184 -8.727,16.506 -16.035,16.506 l 0,0 c -0.103,0 -0.207,-0.002 -0.311,-0.005" /></clipPath><clipPath
       id="clipPath16283"
       clipPathUnits="userSpaceOnUse"><path
         inkscape:connector-curvature="0"
         id="path16285"
         d="m 83.997,88.898 c -0.751,-0.25 -3.75,-0.749 -3.75,-0.749 l 0,0 -10.501,-17.626 c 0,0 -4.5,-11.875 0,-16.124 l 0,0 c 4.5,-4.25 16.751,-5.985 16.751,-5.985 l 0,0 c 0,0 13.5,4.234 17.25,9.984 l 0,0 c 3.75,5.75 13.515,16.553 10.007,26.777 l 0,0 c -1.565,4.559 -7.503,5.842 -13.669,5.842 l 0,0 c -7.66,0.001 -15.672,-1.98 -16.088,-2.119" /></clipPath><clipPath
       id="clipPath16295"
       clipPathUnits="userSpaceOnUse"><path
         inkscape:connector-curvature="0"
         id="path16297"
         d="M 39.744,66.201 C 38.154,65.714 23.716,62.342 19.993,48.951 l 0,0 c -1.786,-6.43 -1.016,-13.393 6.001,-19 l 0,0 c 8.906,-7.117 25.218,-2.186 32.249,8.25 l 0,0 c 7.548,11.202 5.306,26.594 -3.749,31.25 l 0,0 c -0.992,0.511 -2.053,0.719 -3.142,0.719 l 0,0 c -4.215,0 -8.855,-3.124 -11.608,-3.969" /></clipPath><clipPath
       id="clipPath16307"
       clipPathUnits="userSpaceOnUse"><path
         inkscape:connector-curvature="0"
         id="path16309"
         d="m 72.477,27.131 c -0.602,-0.368 -1.93,-1.171 -3.001,-2.75 l 0,0 c -3.533,-5.216 -1.478,-14.828 4.251,-20 l 0,0 c 5.792,-5.226 13.64,-4.386 14.75,-4.25 l 0,0 c 14.341,1.759 27.421,20.023 23.25,34.5 l 0,0 c -0.209,0.726 -3.165,10.536 -10,12 l 0,0 c -0.543,0.116 -1.075,0.172 -1.597,0.173 l 0,0 C 92.929,46.805 87.269,36.194 72.477,27.131" /></clipPath><clipPath
       clipPathUnits="userSpaceOnUse"
       id="clipPath17175"><rect
         style="opacity:1;fill:none;fill-opacity:1;stroke:#000000;stroke-width:0.7801404;stroke-miterlimit:4;stroke-dasharray:0.78014034, 1.56028069;stroke-dashoffset:0;stroke-opacity:1"
         id="rect17177"
         width="151.642"
         height="136.47977"
         x="-97.940292"
         y="-341.75952" /></clipPath></defs><sodipodi:namedview
     pagecolor="#ffffff"
     bordercolor="#666666"
     borderopacity="1"
     objecttolerance="10"
     gridtolerance="10"
     guidetolerance="10"
     inkscape:pageopacity="0"
     inkscape:pageshadow="2"
     inkscape:window-width="1341"
     inkscape:window-height="639"
     id="namedview12232"
     showgrid="false"
     inkscape:zoom="2.2385337"
     inkscape:cx="214.01236"
     inkscape:cy="45.288346"
     inkscape:window-x="185"
     inkscape:window-y="93"
     inkscape:window-maximized="0"
     inkscape:current-layer="g15469"
     showguides="false"
     units="mm" /><g
     id="g12238"
     inkscape:groupmode="layer"
     inkscape:label="NEW_histogram2"
     transform="matrix(1.25,0,0,-1.25,0,125.66845)"><g
       id="g12280"><g
         transform="translate(200.528,-157.78134)"
         inkscape:label="figure_4_livvo_analysis_thiols"
         id="g15469"><g
           id="g15855" /></g></g></g></svg>