<?xml version="1.0" encoding="UTF-8" standalone="no"?>
<!-- Created with Inkscape (http://www.inkscape.org/) -->

<svg
   xmlns:dc="http://purl.org/dc/elements/1.1/"
   xmlns:cc="http://creativecommons.org/ns#"
   xmlns:rdf="http://www.w3.org/1999/02/22-rdf-syntax-ns#"
   xmlns:svg="http://www.w3.org/2000/svg"
   xmlns="http://www.w3.org/2000/svg"
   xmlns:sodipodi="http://sodipodi.sourceforge.net/DTD/sodipodi-0.dtd"
   xmlns:inkscape="http://www.inkscape.org/namespaces/inkscape"
   id="svg2"
   version="1.1"
   inkscape:version="0.91 r13725"
   xml:space="preserve"
   width="297"
   height="224.375"
   viewBox="0 0 297 224.375"
   sodipodi:docname="ti_pre_edge_2.svg"><metadata
     id="metadata8"><rdf:RDF><cc:Work
         rdf:about=""><dc:format>image/svg+xml</dc:format><dc:type
           rdf:resource="http://purl.org/dc/dcmitype/StillImage" /><dc:title></dc:title></cc:Work></rdf:RDF></metadata><defs
     id="defs6"><clipPath
       clipPathUnits="userSpaceOnUse"
       id="clipPath152"><path
         d="m 0,179.5 237.6,0 L 237.6,0 0,0 0,179.5 Z"
         id="path154"
         inkscape:connector-curvature="0" /></clipPath><clipPath
       clipPathUnits="userSpaceOnUse"
       id="clipPath348"><path
         d="m 0,179.5 237.6,0 L 237.6,0 0,0 0,179.5 Z"
         id="path350"
         inkscape:connector-curvature="0" /></clipPath><clipPath
       clipPathUnits="userSpaceOnUse"
       id="clipPath420"><path
         d="m 0,179.5 237.6,0 L 237.6,0 0,0 0,179.5 Z"
         id="path422"
         inkscape:connector-curvature="0" /></clipPath><clipPath
       clipPathUnits="userSpaceOnUse"
       id="clipPath440"><path
         d="m 0,179.5 237.6,0 L 237.6,0 0,0 0,179.5 Z"
         id="path442"
         inkscape:connector-curvature="0" /></clipPath></defs><sodipodi:namedview
     pagecolor="#ffffff"
     bordercolor="#666666"
     borderopacity="1"
     objecttolerance="10"
     gridtolerance="10"
     guidetolerance="10"
     inkscape:pageopacity="0"
     inkscape:pageshadow="2"
     inkscape:window-width="1486"
     inkscape:window-height="761"
     id="namedview4"
     showgrid="false"
     inkscape:zoom="2.0673401"
     inkscape:cx="157.1788"
     inkscape:cy="112.1875"
     inkscape:window-x="0"
     inkscape:window-y="0"
     inkscape:window-maximized="0"
     inkscape:current-layer="g10" /><g
     id="g10"
     inkscape:groupmode="layer"
     inkscape:label="figure_4"
     transform="matrix(1.25,0,0,-1.25,0,224.375)"><g
       id="g12"
       transform="translate(175.5879,74.0146)"><path
         d="M 0,0 54.252,0"
         style="fill:none;stroke:#000000;stroke-width:0.30899999;stroke-linecap:square;stroke-linejoin:miter;stroke-miterlimit:10;stroke-dasharray:none;stroke-opacity:1"
         id="path14"
         inkscape:connector-curvature="0" /></g><g
       id="g16"
       transform="translate(21.6909,19.0322)"><path
         d="M 0,0 135.712,0"
         style="fill:none;stroke:#000000;stroke-width:0.278;stroke-linecap:square;stroke-linejoin:miter;stroke-miterlimit:10;stroke-dasharray:none;stroke-opacity:1"
         id="path18"
         inkscape:connector-curvature="0" /></g><g
       id="g20"
       transform="translate(21.6919,19.0322)"><path
         d="M 0,0 0,157.418"
         style="fill:none;stroke:#000000;stroke-width:0.28400001;stroke-linecap:square;stroke-linejoin:miter;stroke-miterlimit:10;stroke-dasharray:none;stroke-opacity:1"
         id="path22"
         inkscape:connector-curvature="0" /></g><text
       transform="matrix(1,0,0,-1,14.9687,12.6299)"
       style="font-variant:normal;font-weight:normal;font-stretch:normal;font-size:6px;font-family:'Museo Sans 500';-inkscape-font-specification:MuseoSans-500;writing-mode:lr-tb;fill:#000000;fill-opacity:1;fill-rule:nonzero;stroke:none"
       id="text24"><tspan
         x="0 3.6359999 7.23 10.824"
         y="0"
         sodipodi:role="line"
         id="tspan26">4962</tspan></text>
<g
       id="g28"
       transform="translate(41.0652,19.0323)"><path
         d="M 0,0 0,1.117 0,0 Z"
         style="fill:#000000;fill-opacity:1;fill-rule:nonzero;stroke:none"
         id="path30"
         inkscape:connector-curvature="0" /></g><g
       id="g32"
       transform="translate(41.0654,19.0322)"><path
         d="M 0,0 0,1.117"
         style="fill:none;stroke:#000000;stroke-width:0.139;stroke-linecap:butt;stroke-linejoin:round;stroke-miterlimit:10;stroke-dasharray:none;stroke-opacity:1"
         id="path34"
         inkscape:connector-curvature="0" /></g><text
       transform="matrix(1,0,0,-1,34.2363,12.6299)"
       style="font-variant:normal;font-weight:normal;font-stretch:normal;font-size:6px;font-family:'Museo Sans 500';-inkscape-font-specification:MuseoSans-500;writing-mode:lr-tb;fill:#000000;fill-opacity:1;fill-rule:nonzero;stroke:none"
       id="text36"><tspan
         x="0 3.6359999 7.23 10.824"
         y="0"
         sodipodi:role="line"
         id="tspan38">4964</tspan></text>
<g
       id="g40"
       transform="translate(60.4566,19.0323)"><path
         d="M 0,0 0,1.117 0,0 Z"
         style="fill:#000000;fill-opacity:1;fill-rule:nonzero;stroke:none"
         id="path42"
         inkscape:connector-curvature="0" /></g><g
       id="g44"
       transform="translate(60.457,19.0322)"><path
         d="M 0,0 0,1.117"
         style="fill:none;stroke:#000000;stroke-width:0.139;stroke-linecap:butt;stroke-linejoin:round;stroke-miterlimit:10;stroke-dasharray:none;stroke-opacity:1"
         id="path46"
         inkscape:connector-curvature="0" /></g><text
       transform="matrix(1,0,0,-1,53.644,12.6299)"
       style="font-variant:normal;font-weight:normal;font-stretch:normal;font-size:6px;font-family:'Museo Sans 500';-inkscape-font-specification:MuseoSans-500;writing-mode:lr-tb;fill:#000000;fill-opacity:1;fill-rule:nonzero;stroke:none"
       id="text48"><tspan
         x="0 3.6359999 7.23 10.824"
         y="0"
         sodipodi:role="line"
         id="tspan50">4966</tspan></text>
<g
       id="g52"
       transform="translate(79.8462,19.0323)"><path
         d="M 0,0 0,1.117 0,0 Z"
         style="fill:#000000;fill-opacity:1;fill-rule:nonzero;stroke:none"
         id="path54"
         inkscape:connector-curvature="0" /></g><g
       id="g56"
       transform="translate(79.8462,19.0322)"><path
         d="M 0,0 0,1.117"
         style="fill:none;stroke:#000000;stroke-width:0.139;stroke-linecap:butt;stroke-linejoin:round;stroke-miterlimit:10;stroke-dasharray:none;stroke-opacity:1"
         id="path58"
         inkscape:connector-curvature="0" /></g><text
       transform="matrix(1,0,0,-1,73.0474,12.6299)"
       style="font-variant:normal;font-weight:normal;font-stretch:normal;font-size:6px;font-family:'Museo Sans 500';-inkscape-font-specification:MuseoSans-500;writing-mode:lr-tb;fill:#000000;fill-opacity:1;fill-rule:nonzero;stroke:none"
       id="text60"><tspan
         x="0 3.6359999 7.23 10.824"
         y="0"
         sodipodi:role="line"
         id="tspan62">4968</tspan></text>
<g
       id="g64"
       transform="translate(99.234,19.0323)"><path
         d="M 0,0 0,1.117 0,0 Z"
         style="fill:#000000;fill-opacity:1;fill-rule:nonzero;stroke:none"
         id="path66"
         inkscape:connector-curvature="0" /></g><g
       id="g68"
       transform="translate(99.2339,19.0322)"><path
         d="M 0,0 0,1.117"
         style="fill:none;stroke:#000000;stroke-width:0.139;stroke-linecap:butt;stroke-linejoin:round;stroke-miterlimit:10;stroke-dasharray:none;stroke-opacity:1"
         id="path70"
         inkscape:connector-curvature="0" /></g><text
       transform="matrix(1,0,0,-1,92.4316,12.6299)"
       style="font-variant:normal;font-weight:normal;font-stretch:normal;font-size:6px;font-family:'Museo Sans 500';-inkscape-font-specification:MuseoSans-500;writing-mode:lr-tb;fill:#000000;fill-opacity:1;fill-rule:nonzero;stroke:none"
       id="text72"><tspan
         x="0 3.6359999 7.23 10.404"
         y="0"
         sodipodi:role="line"
         id="tspan74">4970</tspan></text>
<g
       id="g76"
       transform="translate(118.6227,19.0323)"><path
         d="M 0,0 0,1.117 0,0 Z"
         style="fill:#000000;fill-opacity:1;fill-rule:nonzero;stroke:none"
         id="path78"
         inkscape:connector-curvature="0" /></g><g
       id="g80"
       transform="translate(118.623,19.0322)"><path
         d="M 0,0 0,1.117"
         style="fill:none;stroke:#000000;stroke-width:0.139;stroke-linecap:butt;stroke-linejoin:round;stroke-miterlimit:10;stroke-dasharray:none;stroke-opacity:1"
         id="path82"
         inkscape:connector-curvature="0" /></g><text
       transform="matrix(1,0,0,-1,111.915,12.6299)"
       style="font-variant:normal;font-weight:normal;font-stretch:normal;font-size:6px;font-family:'Museo Sans 500';-inkscape-font-specification:MuseoSans-500;writing-mode:lr-tb;fill:#000000;fill-opacity:1;fill-rule:nonzero;stroke:none"
       id="text84"><tspan
         x="0 3.6359999 7.23 10.404"
         y="0"
         sodipodi:role="line"
         id="tspan86">4972</tspan></text>
<g
       id="g88"
       transform="translate(138.0123,19.0323)"><path
         d="M 0,0 0,1.117 0,0 Z"
         style="fill:#000000;fill-opacity:1;fill-rule:nonzero;stroke:none"
         id="path90"
         inkscape:connector-curvature="0" /></g><g
       id="g92"
       transform="translate(138.0127,19.0322)"><path
         d="M 0,0 0,1.117"
         style="fill:none;stroke:#000000;stroke-width:0.139;stroke-linecap:butt;stroke-linejoin:round;stroke-miterlimit:10;stroke-dasharray:none;stroke-opacity:1"
         id="path94"
         inkscape:connector-curvature="0" /></g><text
       transform="matrix(1,0,0,-1,131.1807,12.6299)"
       style="font-variant:normal;font-weight:normal;font-stretch:normal;font-size:6px;font-family:'Museo Sans 500';-inkscape-font-specification:MuseoSans-500;writing-mode:lr-tb;fill:#000000;fill-opacity:1;fill-rule:nonzero;stroke:none"
       id="text96"><tspan
         x="0 3.6359999 7.23 10.404"
         y="0"
         sodipodi:role="line"
         id="tspan98">4974</tspan></text>
<g
       id="g100"
       transform="translate(157.4019,19.0323)"><path
         d="M 0,0 0,1.117 0,0 Z"
         style="fill:#000000;fill-opacity:1;fill-rule:nonzero;stroke:none"
         id="path102"
         inkscape:connector-curvature="0" /></g><g
       id="g104"
       transform="translate(157.4023,19.0322)"><path
         d="M 0,0 0,1.117"
         style="fill:none;stroke:#000000;stroke-width:0.139;stroke-linecap:butt;stroke-linejoin:round;stroke-miterlimit:10;stroke-dasharray:none;stroke-opacity:1"
         id="path106"
         inkscape:connector-curvature="0" /></g><text
       transform="matrix(1,0,0,-1,150.5898,12.6299)"
       style="font-variant:normal;font-weight:normal;font-stretch:normal;font-size:6px;font-family:'Museo Sans 500';-inkscape-font-specification:MuseoSans-500;writing-mode:lr-tb;fill:#000000;fill-opacity:1;fill-rule:nonzero;stroke:none"
       id="text108"><tspan
         x="0 3.6359999 7.23 10.404"
         y="0"
         sodipodi:role="line"
         id="tspan110">4976</tspan></text>
<text
       transform="matrix(1,0,0,-1,71.6758,2.498)"
       style="font-variant:normal;font-weight:normal;font-stretch:normal;font-size:7px;font-family:'Museo Sans 500';-inkscape-font-specification:MuseoSans-500;writing-mode:lr-tb;fill:#000000;fill-opacity:1;fill-rule:nonzero;stroke:none"
       id="text112"><tspan
         x="0 4.0110002 8.2320004 12.117 14.742 18.893 22.462999 24.577 28.462 32.886002 115.5 119.511 123.732 127.617 130.242 134.39301 137.963 140.077 143.96201 148.386"
         y="0"
         sodipodi:role="line"
         id="tspan114">Energy(eV)Energy(eV)</tspan></text>
<g
       id="g116"
       transform="translate(20.6136,56.7747)"><path
         d="M 0,0 0.895,0 0,0 Z"
         style="fill:#000000;fill-opacity:1;fill-rule:nonzero;stroke:none"
         id="path118"
         inkscape:connector-curvature="0" /></g><g
       id="g120"
       transform="translate(20.6138,56.7744)"><path
         d="M 0,0 0.895,0"
         style="fill:none;stroke:#000000;stroke-width:0.139;stroke-linecap:butt;stroke-linejoin:round;stroke-miterlimit:10;stroke-dasharray:none;stroke-opacity:1"
         id="path122"
         inkscape:connector-curvature="0" /></g><g
       id="g124"
       transform="translate(20.6136,94.5126)"><path
         d="M 0,0 0.895,0 0,0 Z"
         style="fill:#000000;fill-opacity:1;fill-rule:nonzero;stroke:none"
         id="path126"
         inkscape:connector-curvature="0" /></g><g
       id="g128"
       transform="translate(20.6138,94.5122)"><path
         d="M 0,0 0.895,0"
         style="fill:none;stroke:#000000;stroke-width:0.139;stroke-linecap:butt;stroke-linejoin:round;stroke-miterlimit:10;stroke-dasharray:none;stroke-opacity:1"
         id="path130"
         inkscape:connector-curvature="0" /></g><g
       id="g136"
       transform="translate(20.6136,132.255)"><path
         d="M 0,0 0.895,0 0,0 Z"
         style="fill:#000000;fill-opacity:1;fill-rule:nonzero;stroke:none"
         id="path138"
         inkscape:connector-curvature="0" /></g><g
       id="g140"
       transform="translate(20.6138,132.2549)"><path
         d="M 0,0 0.895,0"
         style="fill:none;stroke:#000000;stroke-width:0.139;stroke-linecap:butt;stroke-linejoin:round;stroke-miterlimit:10;stroke-dasharray:none;stroke-opacity:1"
         id="path142"
         inkscape:connector-curvature="0" /></g><g
       id="g148"
       transform="translate(8,0)"><g
         id="g150"
         clip-path="url(#clipPath152)"><text
           transform="matrix(0,1,1,0,6.835,49.5566)"
           style="font-variant:normal;font-weight:normal;font-stretch:normal;font-size:8px;font-family:'Museo Sans 500';-inkscape-font-specification:MuseoSans-500;writing-mode:lr-tb;fill:#000000;fill-opacity:1;fill-rule:nonzero;stroke:none"
           id="text156"><tspan
             x="0 2.3280001 7.152 10.016 14.456 19.280001 22.864 24.856001 27.719999 31.799999 33.855999 36.271999 40.495998 43.495998 48.296001 50.287998 53.152 56.152 60.375999 63.375999 67.456001 69.512001 74.295998 79.120003 81.112 83.975998 87.559998"
             y="0"
             sodipodi:role="line"
             id="tspan158">Intensity (arbitrary units)</tspan></text>
</g></g><g
       id="g160"
       transform="translate(175.5889,19.0322)"><path
         d="M 0,0 54.25,0"
         style="fill:none;stroke:#000000;stroke-width:0.30899999;stroke-linecap:square;stroke-linejoin:miter;stroke-miterlimit:10;stroke-dasharray:none;stroke-opacity:1"
         id="path162"
         inkscape:connector-curvature="0" /></g><g
       id="g164"
       transform="translate(175.5889,19.0322)"><path
         d="M 0,0 0,36"
         style="fill:none;stroke:#000000;stroke-width:0.30899999;stroke-linecap:square;stroke-linejoin:miter;stroke-miterlimit:10;stroke-dasharray:none;stroke-opacity:1"
         id="path166"
         inkscape:connector-curvature="0" /></g><g
       id="g168"
       transform="translate(175.5889,74.0146)"><path
         d="M 0,0 0,36"
         style="fill:none;stroke:#000000;stroke-width:0.30899999;stroke-linecap:square;stroke-linejoin:miter;stroke-miterlimit:10;stroke-dasharray:none;stroke-opacity:1"
         id="path170"
         inkscape:connector-curvature="0" /></g><text
       transform="matrix(1,0,0,-1,181.9443,12.8574)"
       style="font-variant:normal;font-weight:normal;font-stretch:normal;font-size:6px;font-family:'Museo Sans 500';-inkscape-font-specification:MuseoSans-500;writing-mode:lr-tb;fill:#000000;fill-opacity:1;fill-rule:nonzero;stroke:none"
       id="text172"><tspan
         x="0 3.6359999 7.23 10.824 27 30.636 34.23 37.403999"
         y="0"
         sodipodi:role="line"
         id="tspan174">49684970</tspan></text>
<g
       id="g176"
       transform="translate(182.3701,19.0322)"><path
         d="M 0,0 0,0.884"
         style="fill:none;stroke:#000000;stroke-width:0.155;stroke-linecap:butt;stroke-linejoin:round;stroke-miterlimit:10;stroke-dasharray:none;stroke-opacity:1"
         id="path178"
         inkscape:connector-curvature="0" /></g><g
       id="g180"
       transform="translate(189.1523,19.0322)"><path
         d="M 0,0 0,1.571"
         style="fill:none;stroke:#000000;stroke-width:0.155;stroke-linecap:butt;stroke-linejoin:round;stroke-miterlimit:10;stroke-dasharray:none;stroke-opacity:1"
         id="path182"
         inkscape:connector-curvature="0" /></g><g
       id="g184"
       transform="translate(195.9326,19.0322)"><path
         d="M 0,0 0,0.884"
         style="fill:none;stroke:#000000;stroke-width:0.155;stroke-linecap:butt;stroke-linejoin:round;stroke-miterlimit:10;stroke-dasharray:none;stroke-opacity:1"
         id="path186"
         inkscape:connector-curvature="0" /></g><g
       id="g188"
       transform="translate(202.7139,19.0322)"><path
         d="M 0,0 0,1.571"
         style="fill:none;stroke:#000000;stroke-width:0.155;stroke-linecap:butt;stroke-linejoin:round;stroke-miterlimit:10;stroke-dasharray:none;stroke-opacity:1"
         id="path190"
         inkscape:connector-curvature="0" /></g><g
       id="g192"
       transform="translate(209.4961,19.0322)"><path
         d="M 0,0 0,0.884"
         style="fill:none;stroke:#000000;stroke-width:0.155;stroke-linecap:butt;stroke-linejoin:round;stroke-miterlimit:10;stroke-dasharray:none;stroke-opacity:1"
         id="path194"
         inkscape:connector-curvature="0" /></g><g
       id="g196"
       transform="translate(216.2764,19.0322)"><path
         d="M 0,0 0,1.571"
         style="fill:none;stroke:#000000;stroke-width:0.155;stroke-linecap:butt;stroke-linejoin:round;stroke-miterlimit:10;stroke-dasharray:none;stroke-opacity:1"
         id="path198"
         inkscape:connector-curvature="0" /></g><g
       id="g200"
       transform="translate(223.0576,19.0322)"><path
         d="M 0,0 0,0.884"
         style="fill:none;stroke:#000000;stroke-width:0.155;stroke-linecap:butt;stroke-linejoin:round;stroke-miterlimit:10;stroke-dasharray:none;stroke-opacity:1"
         id="path202"
         inkscape:connector-curvature="0" /></g><g
       id="g204"
       transform="translate(229.8389,19.0322)"><path
         d="M 0,0 0,1.571"
         style="fill:none;stroke:#000000;stroke-width:0.155;stroke-linecap:butt;stroke-linejoin:round;stroke-miterlimit:10;stroke-dasharray:none;stroke-opacity:1"
         id="path206"
         inkscape:connector-curvature="0" /></g><g
       id="g208"
       transform="translate(182.3701,129.3481)"><path
         d="M 0,0 0,0.884"
         style="fill:none;stroke:#000000;stroke-width:0.155;stroke-linecap:butt;stroke-linejoin:round;stroke-miterlimit:10;stroke-dasharray:none;stroke-opacity:1"
         id="path210"
         inkscape:connector-curvature="0" /></g><g
       id="g212"
       transform="translate(189.1523,129.3481)"><path
         d="M 0,0 0,1.571"
         style="fill:none;stroke:#000000;stroke-width:0.155;stroke-linecap:butt;stroke-linejoin:round;stroke-miterlimit:10;stroke-dasharray:none;stroke-opacity:1"
         id="path214"
         inkscape:connector-curvature="0" /></g><g
       id="g216"
       transform="translate(195.9326,129.3481)"><path
         d="M 0,0 0,0.884"
         style="fill:none;stroke:#000000;stroke-width:0.155;stroke-linecap:butt;stroke-linejoin:round;stroke-miterlimit:10;stroke-dasharray:none;stroke-opacity:1"
         id="path218"
         inkscape:connector-curvature="0" /></g><g
       id="g220"
       transform="translate(202.7139,129.3481)"><path
         d="M 0,0 0,1.571"
         style="fill:none;stroke:#000000;stroke-width:0.155;stroke-linecap:butt;stroke-linejoin:round;stroke-miterlimit:10;stroke-dasharray:none;stroke-opacity:1"
         id="path222"
         inkscape:connector-curvature="0" /></g><g
       id="g224"
       transform="translate(209.4961,129.3481)"><path
         d="M 0,0 0,0.884"
         style="fill:none;stroke:#000000;stroke-width:0.155;stroke-linecap:butt;stroke-linejoin:round;stroke-miterlimit:10;stroke-dasharray:none;stroke-opacity:1"
         id="path226"
         inkscape:connector-curvature="0" /></g><g
       id="g228"
       transform="translate(216.2764,129.3481)"><path
         d="M 0,0 0,1.571"
         style="fill:none;stroke:#000000;stroke-width:0.155;stroke-linecap:butt;stroke-linejoin:round;stroke-miterlimit:10;stroke-dasharray:none;stroke-opacity:1"
         id="path230"
         inkscape:connector-curvature="0" /></g><g
       id="g232"
       transform="translate(223.0576,129.3481)"><path
         d="M 0,0 0,0.884"
         style="fill:none;stroke:#000000;stroke-width:0.155;stroke-linecap:butt;stroke-linejoin:round;stroke-miterlimit:10;stroke-dasharray:none;stroke-opacity:1"
         id="path234"
         inkscape:connector-curvature="0" /></g><g
       id="g236"
       transform="translate(229.8389,129.3481)"><path
         d="M 0,0 0,1.571"
         style="fill:none;stroke:#000000;stroke-width:0.155;stroke-linecap:butt;stroke-linejoin:round;stroke-miterlimit:10;stroke-dasharray:none;stroke-opacity:1"
         id="path238"
         inkscape:connector-curvature="0" /></g><g
       id="g240"
       transform="translate(182.3701,74.0146)"><path
         d="M 0,0 0,0.884"
         style="fill:none;stroke:#000000;stroke-width:0.155;stroke-linecap:butt;stroke-linejoin:round;stroke-miterlimit:10;stroke-dasharray:none;stroke-opacity:1"
         id="path242"
         inkscape:connector-curvature="0" /></g><g
       id="g244"
       transform="translate(189.1523,74.0146)"><path
         d="M 0,0 0,1.571"
         style="fill:none;stroke:#000000;stroke-width:0.155;stroke-linecap:butt;stroke-linejoin:round;stroke-miterlimit:10;stroke-dasharray:none;stroke-opacity:1"
         id="path246"
         inkscape:connector-curvature="0" /></g><g
       id="g248"
       transform="translate(195.9326,74.0146)"><path
         d="M 0,0 0,0.884"
         style="fill:none;stroke:#000000;stroke-width:0.155;stroke-linecap:butt;stroke-linejoin:round;stroke-miterlimit:10;stroke-dasharray:none;stroke-opacity:1"
         id="path250"
         inkscape:connector-curvature="0" /></g><g
       id="g252"
       transform="translate(202.7139,74.0146)"><path
         d="M 0,0 0,1.571"
         style="fill:none;stroke:#000000;stroke-width:0.155;stroke-linecap:butt;stroke-linejoin:round;stroke-miterlimit:10;stroke-dasharray:none;stroke-opacity:1"
         id="path254"
         inkscape:connector-curvature="0" /></g><g
       id="g256"
       transform="translate(209.4961,74.0146)"><path
         d="M 0,0 0,0.884"
         style="fill:none;stroke:#000000;stroke-width:0.155;stroke-linecap:butt;stroke-linejoin:round;stroke-miterlimit:10;stroke-dasharray:none;stroke-opacity:1"
         id="path258"
         inkscape:connector-curvature="0" /></g><g
       id="g260"
       transform="translate(216.2764,74.0146)"><path
         d="M 0,0 0,1.571"
         style="fill:none;stroke:#000000;stroke-width:0.155;stroke-linecap:butt;stroke-linejoin:round;stroke-miterlimit:10;stroke-dasharray:none;stroke-opacity:1"
         id="path262"
         inkscape:connector-curvature="0" /></g><g
       id="g264"
       transform="translate(223.0576,74.0146)"><path
         d="M 0,0 0,0.884"
         style="fill:none;stroke:#000000;stroke-width:0.155;stroke-linecap:butt;stroke-linejoin:round;stroke-miterlimit:10;stroke-dasharray:none;stroke-opacity:1"
         id="path266"
         inkscape:connector-curvature="0" /></g><g
       id="g268"
       transform="translate(229.8389,74.0146)"><path
         d="M 0,0 0,1.571"
         style="fill:none;stroke:#000000;stroke-width:0.155;stroke-linecap:butt;stroke-linejoin:round;stroke-miterlimit:10;stroke-dasharray:none;stroke-opacity:1"
         id="path270"
         inkscape:connector-curvature="0" /></g><g
       id="g272"
       transform="translate(20.6136,170.6526)"><path
         d="M 0,0 0.895,0 0,0 Z"
         style="fill:#000000;fill-opacity:1;fill-rule:nonzero;stroke:none"
         id="path274"
         inkscape:connector-curvature="0" /></g><g
       id="g276"
       transform="translate(20.6138,170.6528)"><path
         d="M 0,0 0.895,0"
         style="fill:none;stroke:#000000;stroke-width:0.139;stroke-linecap:butt;stroke-linejoin:round;stroke-miterlimit:10;stroke-dasharray:none;stroke-opacity:1"
         id="path278"
         inkscape:connector-curvature="0" /></g><g
       id="g280"
       transform="translate(222.334,162.2178)"><path
         d="M 0,0 -7.872,-3.835"
         style="fill:none;stroke:#000000;stroke-width:0.5;stroke-linecap:butt;stroke-linejoin:miter;stroke-miterlimit:4;stroke-dasharray:none;stroke-opacity:1"
         id="path282"
         inkscape:connector-curvature="0" /></g><g
       id="g284"
       transform="translate(214.7783,159.9785)"><path
         d="M 0,0 0.072,-1.406 1.136,-2.33 -2.194,-2.511 0,0 Z"
         style="fill:#000000;fill-opacity:1;fill-rule:nonzero;stroke:none"
         id="path286"
         inkscape:connector-curvature="0" /></g><g
       id="g288"
       transform="translate(58.1528,41.0166)"><path
         d="M 0,0 -6.526,-6.689"
         style="fill:none;stroke:#000000;stroke-width:0.5;stroke-linecap:butt;stroke-linejoin:miter;stroke-miterlimit:4;stroke-dasharray:none;stroke-opacity:1"
         id="path290"
         inkscape:connector-curvature="0" /></g><g
       id="g292"
       transform="translate(51.3853,35.9355)"><path
         d="M 0,0 0.543,-1.3 1.855,-1.811 -1.218,-3.104 0,0 Z"
         style="fill:#000000;fill-opacity:1;fill-rule:nonzero;stroke:none"
         id="path294"
         inkscape:connector-curvature="0" /></g><text
       transform="matrix(1,0,0,-1,184.936,171.2021)"
       style="font-variant:normal;font-weight:normal;font-stretch:normal;font-size:8px;font-family:'Museo Sans 500';-inkscape-font-specification:MuseoSans-500;writing-mode:lr-tb;fill:#000000;fill-opacity:1;fill-rule:nonzero;stroke:none"
       id="text296"><tspan
         x="0 2.4159999 7.2160001 9.632 11.688 16.431999 18.424 24.200001"
         y="0"
         sodipodi:role="line"
         id="tspan298">(b) TiCl</tspan></text>
<text
       transform="matrix(1,0,0,-1,211.2554,168.5381)"
       style="font-variant:normal;font-weight:normal;font-stretch:normal;font-size:4.66400003px;font-family:'Museo Sans 500';-inkscape-font-specification:MuseoSans-500;writing-mode:lr-tb;fill:#000000;fill-opacity:1;fill-rule:nonzero;stroke:none"
       id="text300"><tspan
         x="0"
         y="0"
         id="tspan302">4</tspan></text>
<text
       transform="matrix(1,0,0,-1,184.9355,61.2095)"
       style="font-variant:normal;font-weight:normal;font-stretch:normal;font-size:8px;font-family:'Museo Sans 500';-inkscape-font-specification:MuseoSans-500;writing-mode:lr-tb;fill:#000000;fill-opacity:1;fill-rule:nonzero;stroke:none"
       id="text304"><tspan
         x="0 2.4159999 7.224 9.6400003 11.696 16.440001 18.431999 24.208"
         y="0"
         sodipodi:role="line"
         id="tspan306">(d) TiCp</tspan></text>
<text
       transform="matrix(1,0,0,-1,213.9429,58.5454)"
       style="font-variant:normal;font-weight:normal;font-stretch:normal;font-size:4.66400003px;font-family:'Museo Sans 500';-inkscape-font-specification:MuseoSans-500;writing-mode:lr-tb;fill:#000000;fill-opacity:1;fill-rule:nonzero;stroke:none"
       id="text308"><tspan
         x="0"
         y="0"
         id="tspan310">2</tspan></text>
<text
       transform="matrix(1,0,0,-1,216.6108,61.2095)"
       style="font-variant:normal;font-weight:normal;font-stretch:normal;font-size:8px;font-family:'Museo Sans 500';-inkscape-font-specification:MuseoSans-500;writing-mode:lr-tb;fill:#000000;fill-opacity:1;fill-rule:nonzero;stroke:none"
       id="text312"><tspan
         x="0 5.776"
         y="0"
         sodipodi:role="line"
         id="tspan314">Cl</tspan></text>
<text
       transform="matrix(1,0,0,-1,224.5063,58.5454)"
       style="font-variant:normal;font-weight:normal;font-stretch:normal;font-size:4.66400003px;font-family:'Museo Sans 500';-inkscape-font-specification:MuseoSans-500;writing-mode:lr-tb;fill:#000000;fill-opacity:1;fill-rule:nonzero;stroke:none"
       id="text316"><tspan
         x="0"
         y="0"
         id="tspan318">2</tspan></text>
<text
       transform="matrix(1,0,0,-1,184.9355,115.9429)"
       style="font-variant:normal;font-weight:normal;font-stretch:normal;font-size:8px;font-family:'Museo Sans 500';-inkscape-font-specification:MuseoSans-500;writing-mode:lr-tb;fill:#000000;fill-opacity:1;fill-rule:nonzero;stroke:none"
       id="text320"><tspan
         x="0 2.4159999 6.7919998 9.2080002 11.264 16.007999 18 23.775999 28.576 34.352001"
         y="0"
         sodipodi:role="line"
         id="tspan322">(c) TiCpCl</tspan></text>
<text
       transform="matrix(1,0,0,-1,221.4067,113.2788)"
       style="font-variant:normal;font-weight:normal;font-stretch:normal;font-size:4.66400003px;font-family:'Museo Sans 500';-inkscape-font-specification:MuseoSans-500;writing-mode:lr-tb;fill:#000000;fill-opacity:1;fill-rule:nonzero;stroke:none"
       id="text324"><tspan
         x="0"
         y="0"
         id="tspan326">3</tspan></text>
<text
       transform="matrix(1,0,0,-1,23.9004,55.0928)"
       style="font-variant:normal;font-weight:normal;font-stretch:normal;font-size:8px;font-family:'Museo Sans 500';-inkscape-font-specification:MuseoSans-500;writing-mode:lr-tb;fill:#000000;fill-opacity:1;fill-rule:nonzero;stroke:none"
       id="text328"><tspan
         x="0 4.744 6.7360001 12.512 17.312 23.087999"
         y="0"
         sodipodi:role="line"
         id="tspan330">TiCpCl</tspan></text>
<text
       transform="matrix(1,0,0,-1,49.1079,52.4287)"
       style="font-variant:normal;font-weight:normal;font-stretch:normal;font-size:4.66400003px;font-family:'Museo Sans 500';-inkscape-font-specification:MuseoSans-500;writing-mode:lr-tb;fill:#000000;fill-opacity:1;fill-rule:nonzero;stroke:none"
       id="text332"><tspan
         x="0"
         y="0"
         id="tspan334">3</tspan></text>
<g
       id="g336"
       transform="translate(175.5879,129.3481)"><path
         d="M 0,0 54.252,0"
         style="fill:none;stroke:#000000;stroke-width:0.30899999;stroke-linecap:square;stroke-linejoin:miter;stroke-miterlimit:10;stroke-dasharray:none;stroke-opacity:1"
         id="path338"
         inkscape:connector-curvature="0" /></g><g
       id="g340"
       transform="translate(175.5889,129.3481)"><path
         d="M 0,0 0,36"
         style="fill:none;stroke:#000000;stroke-width:0.30899999;stroke-linecap:square;stroke-linejoin:miter;stroke-miterlimit:10;stroke-dasharray:none;stroke-opacity:1"
         id="path342"
         inkscape:connector-curvature="0" /></g><g
       id="g344"><g
         id="g346"
         clip-path="url(#clipPath348)"><g
           id="g352"
           transform="translate(175.4814,132.3481)"><path
             d="M 0,0 C 0.164,0.039 0.326,0.079 0.486,0.118"
             style="fill:none;stroke:#2b3990;stroke-width:0.75;stroke-linecap:round;stroke-linejoin:round;stroke-miterlimit:4;stroke-dasharray:none;stroke-opacity:1"
             id="path354"
             inkscape:connector-curvature="0" /></g><g
           id="g356"
           transform="translate(177.8984,133.0151)"><path
             d="m 0,0 c 0.021,0.007 0.042,0.014 0.063,0.021 8.43,2.775 10.142,6.172 11.613,7.668 3.168,4.332 4.983,8.911 5.992,11.703 1.011,2.793 3.372,8.879 3.372,8.879 0,0 1.873,7.062 5.244,7.062 3.372,0 5.242,-5.953 5.242,-5.953 l 3.373,-7.668 c 0,0 2.497,-5.041 4.496,-7.97 2.462,-3.594 5.306,-5.716 8.241,-7.163 0.77,-0.38 1.668,-0.781 2.752,-1.165"
             style="fill:none;stroke:#2b3990;stroke-width:0.75;stroke-linecap:round;stroke-linejoin:round;stroke-miterlimit:4;stroke-dasharray:1.002, 2.003;stroke-dashoffset:0;stroke-opacity:1"
             id="path358"
             inkscape:connector-curvature="0" /></g><g
           id="g360"
           transform="translate(229.2324,138.1138)"><path
             d="M 0,0 C 0.156,-0.049 0.316,-0.098 0.48,-0.146"
             style="fill:none;stroke:#2b3990;stroke-width:0.75;stroke-linecap:round;stroke-linejoin:round;stroke-miterlimit:4;stroke-dasharray:none;stroke-opacity:1"
             id="path362"
             inkscape:connector-curvature="0" /></g><g
           id="g364"
           transform="translate(175.4814,22.0322)"><path
             d="M 0,0 C 0.066,0.155 0.132,0.309 0.197,0.46"
             style="fill:none;stroke:#be1e2d;stroke-width:0.75;stroke-linecap:round;stroke-linejoin:round;stroke-miterlimit:4;stroke-dasharray:none;stroke-opacity:1"
             id="path366"
             inkscape:connector-curvature="0" /></g><g
           id="g368"
           transform="translate(176.4717,24.3555)"><path
             d="m 0,0 c 3.589,8.477 4.396,10.928 6.36,13.37 2.621,3.225 6.514,3.919 9.177,6.495 3.372,3.268 5.059,13.028 7.491,13.69 2.435,0.633 4.309,-1.328 5.807,-2.62 1.499,-1.299 4.211,-8.435 5.619,-11.07 2.436,-4.57 8.932,-2.31 11.122,-0.553 2.234,1.813 4.747,6.093 7.049,11.15"
             style="fill:none;stroke:#be1e2d;stroke-width:0.75;stroke-linecap:round;stroke-linejoin:round;stroke-miterlimit:4;stroke-dasharray:1.011, 2.021;stroke-dashoffset:0;stroke-opacity:1"
             id="path370"
             inkscape:connector-curvature="0" /></g><g
           id="g372"
           transform="translate(229.5088,55.7354)"><path
             d="M 0,0 C 0.067,0.152 0.135,0.305 0.201,0.458"
             style="fill:none;stroke:#be1e2d;stroke-width:0.75;stroke-linecap:round;stroke-linejoin:round;stroke-miterlimit:4;stroke-dasharray:none;stroke-opacity:1"
             id="path374"
             inkscape:connector-curvature="0" /></g><g
           id="g376"
           transform="translate(175.4814,77.0146)"><path
             d="M 0,0 C 0.091,0.14 0.182,0.28 0.271,0.42"
             style="fill:none;stroke:#009e17;stroke-width:0.75;stroke-linecap:round;stroke-linejoin:round;stroke-miterlimit:4;stroke-dasharray:none;stroke-opacity:1"
             id="path378"
             inkscape:connector-curvature="0" /></g><g
           id="g380"
           transform="translate(176.7686,79.1182)"><path
             d="m 0,0 c 2.196,3.832 3.689,7.846 4.938,12.933 2.437,9.922 4.685,17.12 5.621,18.485 0.936,1.36 1.686,2.331 2.996,2.331 1.311,0 3.558,-1.749 4.681,-3.889 1.125,-2.133 2.438,-7.005 4.122,-8.948 1.685,-1.946 2.621,-4.67 6.741,-4.862 4.121,-0.195 4.683,-2.335 7.305,-4.477 2.621,-2.135 4.683,-7.392 9.178,-9.719 2.655,-1.381 4.395,-1.811 5.875,-1.893"
             style="fill:none;stroke:#009e17;stroke-width:0.75;stroke-linecap:round;stroke-linejoin:round;stroke-miterlimit:4;stroke-dasharray:0.985, 1.97;stroke-dashoffset:0;stroke-opacity:1"
             id="path382"
             inkscape:connector-curvature="0" /></g><g
           id="g384"
           transform="translate(229.2139,79.0703)"><path
             d="M 0,0 C 0.166,0.006 0.331,0.014 0.496,0.024"
             style="fill:none;stroke:#009e17;stroke-width:0.75;stroke-linecap:round;stroke-linejoin:round;stroke-miterlimit:4;stroke-dasharray:none;stroke-opacity:1"
             id="path386"
             inkscape:connector-curvature="0" /></g></g></g><text
       transform="matrix(1,0,0,-1,223.02,160.9521)"
       style="font-variant:normal;font-weight:normal;font-stretch:normal;font-size:7px;font-family:'Museo Sans 500';-inkscape-font-specification:MuseoSans-500;writing-mode:lr-tb;fill:#000000;fill-opacity:1;fill-rule:nonzero;stroke:none"
       id="text388"><tspan
         x="0 4.0110002 7.5669999 11.767"
         y="0"
         sodipodi:role="line"
         id="tspan390">Exp.</tspan></text>
<text
       transform="matrix(1,0,0,-1,58.1206,40.9717)"
       style="font-variant:normal;font-weight:normal;font-stretch:normal;font-size:8px;font-family:'Museo Sans 500';-inkscape-font-specification:MuseoSans-500;writing-mode:lr-tb;fill:#000000;fill-opacity:1;fill-rule:nonzero;stroke:none"
       id="text392"><tspan
         x="0 4.744 6.7360001 12.512"
         y="0"
         sodipodi:role="line"
         id="tspan394">TiCl</tspan></text>
<text
       transform="matrix(1,0,0,-1,72.7524,38.3076)"
       style="font-variant:normal;font-weight:normal;font-stretch:normal;font-size:4.66400003px;font-family:'Museo Sans 500';-inkscape-font-specification:MuseoSans-500;writing-mode:lr-tb;fill:#000000;fill-opacity:1;fill-rule:nonzero;stroke:none"
       id="text396"><tspan
         x="0"
         y="0"
         id="tspan398">4</tspan></text>
<text
       transform="matrix(1,0,0,-1,89.2134,44.7295)"
       style="font-variant:normal;font-weight:normal;font-stretch:normal;font-size:8px;font-family:'Museo Sans 500';-inkscape-font-specification:MuseoSans-500;writing-mode:lr-tb;fill:#000000;fill-opacity:1;fill-rule:nonzero;stroke:none"
       id="text400"><tspan
         x="0 4.744 6.7360001 12.512"
         y="0"
         sodipodi:role="line"
         id="tspan402">TiCp</tspan></text>
<text
       transform="matrix(1,0,0,-1,106.5249,42.0654)"
       style="font-variant:normal;font-weight:normal;font-stretch:normal;font-size:4.66400003px;font-family:'Museo Sans 500';-inkscape-font-specification:MuseoSans-500;writing-mode:lr-tb;fill:#000000;fill-opacity:1;fill-rule:nonzero;stroke:none"
       id="text404"><tspan
         x="0"
         y="0"
         id="tspan406">2</tspan></text>
<text
       transform="matrix(1,0,0,-1,109.1929,44.7295)"
       style="font-variant:normal;font-weight:normal;font-stretch:normal;font-size:8px;font-family:'Museo Sans 500';-inkscape-font-specification:MuseoSans-500;writing-mode:lr-tb;fill:#000000;fill-opacity:1;fill-rule:nonzero;stroke:none"
       id="text408"><tspan
         x="0 5.776"
         y="0"
         sodipodi:role="line"
         id="tspan410">Cl</tspan></text>
<text
       transform="matrix(1,0,0,-1,117.0889,42.0654)"
       style="font-variant:normal;font-weight:normal;font-stretch:normal;font-size:4.66400003px;font-family:'Museo Sans 500';-inkscape-font-specification:MuseoSans-500;writing-mode:lr-tb;fill:#000000;fill-opacity:1;fill-rule:nonzero;stroke:none"
       id="text412"><tspan
         x="0"
         y="0"
         id="tspan414">2</tspan></text>
<g
       id="g416"><g
         id="g418"
         clip-path="url(#clipPath420)"><g
           id="g424"
           transform="translate(103.0757,40.4092)"><path
             d="M 0,0 1.997,-6.739"
             style="fill:none;stroke:#000000;stroke-width:0.5;stroke-linecap:butt;stroke-linejoin:miter;stroke-miterlimit:4;stroke-dasharray:none;stroke-opacity:1"
             id="path426"
             inkscape:connector-curvature="0" /></g><g
           id="g428"
           transform="translate(103.5508,34.2441)"><path
             d="M 0,0 1.399,-0.159 2.485,0.737 2.116,-2.577 0,0 Z"
             style="fill:#000000;fill-opacity:1;fill-rule:nonzero;stroke:none"
             id="path430"
             inkscape:connector-curvature="0" /></g></g></g><text
       transform="matrix(1,0,0,-1,25.2871,169.8691)"
       style="font-variant:normal;font-weight:normal;font-stretch:normal;font-size:8px;font-family:'Museo Sans 500';-inkscape-font-specification:MuseoSans-500;writing-mode:lr-tb;fill:#000000;fill-opacity:1;fill-rule:nonzero;stroke:none"
       id="text432"><tspan
         x="0 2.4159999 6.6399999 9.0559998 11.112 16.007999 20.584 26.360001 30.136 36.703999 42.48 48.400002 52.568001"
         y="0"
         sodipodi:role="line"
         id="tspan434">(a) X2C-OCDFT</tspan></text>
<g
       id="g436"><g
         id="g438"
         clip-path="url(#clipPath440)"><g
           id="g444"
           transform="translate(21.6909,19.0254)"><path
             d="m 0,0 9.489,0.036 1.382,0.074 0.877,0.117 0.669,0.157 0.556,0.201 0.488,0.251 0.447,0.307 0.42,0.371 0.404,0.45 0.397,0.544 0.398,0.659 0.404,0.801 0.416,0.969 0.433,1.182 0.459,1.444 0.496,1.785 0.558,2.255 0.678,3.024 2.164,9.866 0.468,1.718 0.393,1.207 0.337,0.844 0.294,0.571 0.26,0.368 0.229,0.218 0.207,0.107 0.191,0.025 0.189,-0.047 0.196,-0.125 0.214,-0.219 0.237,-0.346 0.268,-0.512 0.301,-0.728 0.348,-1.012 0.404,-1.387 0.488,-1.913 0.643,-2.808 2.15,-9.593 L 29.54,8.643 30.063,6.906 30.548,5.515 31.006,4.388 31.448,3.471 31.876,2.725 32.3,2.118 32.723,1.624 33.155,1.222 33.603,0.895 34.081,0.632 34.606,0.422 35.205,0.259 35.923,0.139 36.86,0.058 38.278,0.013 41.589,0 l 37.432,0.023 1.463,0.07 0.943,0.113 0.739,0.157 0.629,0.206 0.566,0.257 0.531,0.318 0.516,0.388 0.515,0.478 0.535,0.587 0.58,0.74 0.682,0.984 2.226,3.306 0.461,0.514 0.396,0.343 0.355,0.222 0.327,0.125 0.31,0.045 0.306,-0.024 0.311,-0.099 0.327,-0.178 0.352,-0.273 0.396,-0.396 0.458,-0.559 0.576,-0.813 1.012,-1.569 0.939,-1.404 0.64,-0.839 0.564,-0.634 0.531,-0.499 0.517,-0.394 0.517,-0.308 0.526,-0.235 0.546,-0.168 0.564,-0.098 0.575,-0.031 0.567,0.041 0.54,0.11 0.506,0.173 0.476,0.236 0.449,0.301 0.431,0.372 0.42,0.453 0.417,0.549 0.418,0.664 0.424,0.799 0.432,0.955 0.443,1.144 0.459,1.368 0.472,1.613 0.486,1.894 0.495,2.197 0.497,2.498 0.491,2.804 0.481,3.12 0.467,3.458 0.456,3.861 0.449,4.36 0.446,4.968 0.451,5.742 0.462,6.734 0.486,8.009 0.523,9.753 0.599,12.389 0.823,18.522 1.104,24.625 0.503,9.8 0.395,6.521 0.329,4.437 0.277,2.953 0.236,1.863 0.195,1.088 0.159,0.563 0.124,0.236 0.093,0.056 0.077,-0.029 0.087,-0.119 0.109,-0.275 0.134,-0.533 0.163,-0.931 0.193,-1.501 0.225,-2.288 0.262,-3.353 0.303,-4.739 0.353,-6.6 0.425,-9.174 0.548,-13.29 1.052,-27.523 0.809,-20.325 0.578,-12.959 0.501,-9.85 0.456,-7.761 0.425,-6.185 0.402,-4.955 0.384,-3.979 0.37,-3.187 0.357,-2.558 0.348,-2.037 0.339,-1.623 0.333,-1.29 0.327,-1.02 0.324,-0.809 0.324,-0.64 0.327,-0.505 0.337,-0.401 0.352,-0.317 0.379,-0.25 0.422,-0.196 0.492,-0.152 0.608,-0.109 0.823,-0.071 1.339,-0.038 2.492,-0.009"
             style="fill:none;stroke:#2b3990;stroke-width:0.75;stroke-linecap:square;stroke-linejoin:round;stroke-miterlimit:10;stroke-dasharray:none;stroke-opacity:1"
             id="path446"
             inkscape:connector-curvature="0" /></g><g
           id="g448"
           transform="translate(21.6909,19.0273)"><path
             d="m 0,0 2.857,0.044 1.239,0.086 0.89,0.132 0.732,0.176 0.646,0.228 0.599,0.286 0.58,0.353 0.583,0.437 0.618,0.55 0.709,0.727 1.187,1.333 0.851,0.906 0.559,0.5 0.466,0.328 0.412,0.21 0.381,0.118 0.365,0.041 0.362,-0.03 0.368,-0.103 0.388,-0.182 0.424,-0.28 0.487,-0.404 0.604,-0.599 1.217,-1.325 0.796,-0.807 0.591,-0.506 0.515,-0.356 0.474,-0.245 0.449,-0.156 0.436,-0.078 0.432,-0.005 0.439,0.063 0.456,0.141 0.486,0.223 0.537,0.326 0.635,0.47 0.975,0.818 1.011,0.821 0.586,0.39 0.491,0.245 0.44,0.145 0.415,0.065 0.406,-0.009 0.41,-0.08 0.429,-0.157 0.466,-0.247 0.533,-0.364 0.673,-0.548 2.476,-2.095 0.669,-0.433 0.646,-0.334 0.653,-0.26 0.697,-0.204 0.779,-0.15 0.933,-0.107 1.238,-0.067 2.073,-0.029 8.558,-0.004 11.678,0.036 7.205,0.061 2.662,0.038 1.393,0.089 1.14,0.142 1.076,0.207 1.177,0.301 3.571,0.965 2.452,0.548 0.613,0.236 0.544,0.285 0.519,0.349 0.519,0.434 0.552,0.552 0.634,0.735 0.987,1.263 0.876,1.079 0.528,0.548 0.433,0.357 0.38,0.228 0.347,0.13 0.329,0.05 0.321,-0.024 0.326,-0.094 0.34,-0.174 0.368,-0.268 0.411,-0.387 0.484,-0.553 0.635,-0.837 1.764,-2.379 0.54,-0.587 0.473,-0.416 0.433,-0.295 0.41,-0.198 0.397,-0.115 0.398,-0.043 0.407,0.027 0.432,0.101 0.476,0.185 0.561,0.296 0.788,0.503 1.277,0.813 0.599,0.293 0.519,0.18 0.491,0.097 0.492,0.024 0.526,-0.046 0.644,-0.13 1.448,-0.322 0.441,-0.009 0.373,0.064 0.336,0.126 0.319,0.195 0.307,0.273 0.306,0.36 0.308,0.471 0.312,0.6 0.318,0.76 0.328,0.951 0.335,1.181 0.343,1.451 0.352,1.772 0.361,2.159 0.371,2.623 0.383,3.168 0.397,3.829 0.413,4.625 0.432,5.595 0.46,6.796 0.5,8.359 0.562,10.517 0.693,14.257 1.864,39.018 0.469,8.1 0.384,5.604 0.324,3.859 0.278,2.6 0.237,1.654 0.199,0.985 0.163,0.515 0.129,0.223 0.099,0.059 0.085,-0.027 0.091,-0.112 0.114,-0.251 0.137,-0.48 0.167,-0.83 0.199,-1.335 0.23,-2.016 0.268,-2.933 0.309,-4.135 0.361,-5.725 0.432,-7.914 0.549,-11.333 0.926,-20.643 0.982,-21.433 0.619,-12.129 0.53,-9.172 0.479,-7.239 0.446,-5.816 0.422,-4.692 0.402,-3.782 0.386,-3.059 0.374,-2.463 0.364,-1.987 0.354,-1.595 0.348,-1.276 0.342,-1.023 0.338,-0.815 0.338,-0.65 0.342,-0.519 0.351,-0.414 0.366,-0.33 0.393,-0.264 0.433,-0.208 0.501,-0.161 0.608,-0.121 0.801,-0.081 1.22,-0.045 2.107,-0.015"
             style="fill:none;stroke:#009e17;stroke-width:0.75;stroke-linecap:square;stroke-linejoin:round;stroke-miterlimit:10;stroke-dasharray:none;stroke-opacity:1"
             id="path450"
             inkscape:connector-curvature="0" /></g><g
           id="g452"
           transform="translate(21.6909,19.0332)"><path
             d="m 0,0 2.648,0.053 1.613,0.1 1.441,0.163 1.936,0.299 1.592,0.218 1.052,0.071 0.997,-0.003 1.15,-0.078 2.498,-0.192 0.857,0.022 0.788,0.092 0.798,0.165 0.908,0.263 2.757,0.85 0.679,0.101 0.634,0.022 0.63,-0.049 0.666,-0.123 0.765,-0.217 1.071,-0.384 1.823,-0.653 0.975,-0.267 0.952,-0.188 1.037,-0.132 1.256,-0.084 1.805,-0.045 4.235,-0.012 14.518,0.033 2.279,0.085 2.29,0.16 3.572,0.252 3.432,0.212 1.248,0.165 1.356,0.255 2.484,0.481 1.054,0.116 1.367,0.07 1.168,0.085 0.7,0.122 0.6,0.175 0.564,0.238 0.555,0.311 0.573,0.4 0.615,0.517 0.697,0.676 0.861,0.934 1.266,1.484 3.431,4.061 0.644,0.632 0.509,0.409 0.433,0.264 0.385,0.156 0.352,0.069 0.335,-0.005 0.328,-0.078 0.332,-0.15 0.345,-0.234 0.367,-0.336 0.402,-0.462 0.455,-0.627 0.54,-0.866 0.735,-1.314 1.648,-2.976 0.621,-0.963 0.537,-0.718 0.491,-0.548 0.462,-0.418 0.442,-0.309 0.43,-0.22 0.426,-0.142 0.427,-0.068 0.436,0.003 0.449,0.073 0.467,0.148 0.486,0.228 0.504,0.315 0.517,0.404 0.526,0.5 0.531,0.597 0.535,0.706 0.542,0.825 0.555,0.97 0.588,1.16 0.65,1.432 0.809,1.951 1.687,4.114 0.528,1.089 0.428,0.74 0.365,0.508 0.32,0.337 0.286,0.208 0.262,0.109 0.247,0.028 0.241,-0.044 0.247,-0.117 0.261,-0.202 0.282,-0.309 0.312,-0.444 0.349,-0.618 0.398,-0.848 0.473,-1.163 0.605,-1.674 2.397,-6.824 0.559,-1.295 0.509,-1.018 0.478,-0.82 0.462,-0.661 0.453,-0.538 0.455,-0.436 0.465,-0.355 0.489,-0.287 0.528,-0.23 0.59,-0.178 0.692,-0.136 0.869,-0.095 1.227,-0.055 2.305,-0.024 14.509,-0.002"
             style="fill:none;stroke:#be1e2d;stroke-width:0.75;stroke-linecap:square;stroke-linejoin:round;stroke-miterlimit:10;stroke-dasharray:none;stroke-opacity:1"
             id="path454"
             inkscape:connector-curvature="0" /></g><g
           id="g456"
           transform="translate(33,52.5)"><path
             d="M 0,0 2.002,-24.893"
             style="fill:none;stroke:#000000;stroke-width:0.5;stroke-linecap:butt;stroke-linejoin:miter;stroke-miterlimit:4;stroke-dasharray:none;stroke-opacity:1"
             id="path458"
             inkscape:connector-curvature="0" /></g><g
           id="g460"
           transform="translate(33.6318,28.4834)"><path
             d="M 0,0 1.336,-0.445 2.583,0.207 1.538,-2.959 0,0 Z"
             style="fill:#000000;fill-opacity:1;fill-rule:nonzero;stroke:none"
             id="path462"
             inkscape:connector-curvature="0" /></g><g
           id="g464"
           transform="translate(175.5879,129.3481)"><path
             d="m 0,0 9.279,0.044 1.934,0.09 1.227,0.141 0.936,0.191 0.779,0.244 0.684,0.304 0.624,0.372 0.588,0.45 0.565,0.546 0.557,0.66 0.556,0.801 0.566,0.971 0.582,1.177 0.605,1.433 0.643,1.753 0.694,2.164 0.782,2.736 0.948,3.67 3.028,11.971 0.655,2.084 0.549,1.464 0.473,1.024 0.412,0.693 0.363,0.447 0.32,0.264 0.29,0.13 0.267,0.03 0.264,-0.057 0.275,-0.151 0.299,-0.266 0.332,-0.42 0.375,-0.622 0.422,-0.882 0.486,-1.228 0.567,-1.684 0.681,-2.321 0.901,-3.406 3.008,-11.639 0.823,-2.692 0.732,-2.107 0.679,-1.688 0.642,-1.367 0.617,-1.113 0.6,-0.905 0.593,-0.736 0.592,-0.6 0.603,-0.488 0.628,-0.397 0.668,-0.318 0.736,-0.255 0.838,-0.198 1.005,-0.146 1.311,-0.098 6.661,-0.055"
             style="fill:none;stroke:#2b3990;stroke-width:0.75;stroke-linecap:square;stroke-linejoin:round;stroke-miterlimit:10;stroke-dasharray:none;stroke-opacity:1"
             id="path466"
             inkscape:connector-curvature="0" /></g><g
           id="g468"
           transform="translate(175.582,20.0313)"><path
             d="m 0,0 1.97,1.681 2.015,2.731 2.71,4.996 2.228,3.642 1.472,1.19 1.396,-0.047 1.607,-1.307 3.498,-3.222 1.199,0.386 1.102,1.529 1.116,2.766 1.272,4.4 3.857,14.216 0.952,1.682 0.886,0.361 0.882,-0.817 0.932,-2.054 1.07,-3.63 1.499,-6.42 2.552,-10.925 1.364,-4.458 1.332,-3.151 1.451,-2.206 1.758,-1.412 2.526,-0.747 5.856,-0.144 5.75,-0.044"
             style="fill:none;stroke:#be1e2d;stroke-width:0.75;stroke-linecap:square;stroke-linejoin:round;stroke-miterlimit:10;stroke-dasharray:none;stroke-opacity:1"
             id="path470"
             inkscape:connector-curvature="0" /></g><g
           id="g472"
           transform="translate(175.5859,74.708)"><path
             d="m 0,0 1.734,0.479 1.247,0.728 1.022,0.977 0.905,1.258 0.839,1.582 0.812,1.954 0.816,2.415 0.865,3.041 0.99,4.021 1.663,7.372 1.19,5.009 0.783,2.763 0.652,1.818 0.577,1.162 0.532,0.652 0.512,0.227 0.506,-0.169 0.514,-0.564 0.543,-1.011 0.594,-1.544 0.681,-2.238 0.846,-3.311 1.702,-7.325 1.115,-4.469 0.826,-2.798 0.721,-1.965 0.664,-1.358 0.628,-0.864 0.61,-0.433 0.605,-0.023 0.614,0.347 0.638,0.78 0.681,1.231 0.751,1.803 0.889,2.6 1.364,4.524 1.415,4.546 0.82,2.153 0.687,1.355 0.616,0.807 0.58,0.355 0.569,-0.047 0.574,-0.447 0.6,-0.869 0.652,-1.366 0.746,-2.014 0.941,-3.03 3.465,-11.586 0.937,-2.392 0.904,-1.845 0.914,-1.443 0.974,-1.123 1.091,-0.83 1.305,-0.594 1.834,-0.371 3.931,-0.623"
             style="fill:none;stroke:#009e17;stroke-width:0.75;stroke-linecap:square;stroke-linejoin:round;stroke-miterlimit:10;stroke-dasharray:none;stroke-opacity:1"
             id="path474"
             inkscape:connector-curvature="0" /></g></g></g></g></svg>