<?xml version="1.0" encoding="UTF-8" standalone="no"?>
<!-- Created with Inkscape (http://www.inkscape.org/) -->

<svg
   xmlns:dc="http://purl.org/dc/elements/1.1/"
   xmlns:cc="http://creativecommons.org/ns#"
   xmlns:rdf="http://www.w3.org/1999/02/22-rdf-syntax-ns#"
   xmlns:svg="http://www.w3.org/2000/svg"
   xmlns="http://www.w3.org/2000/svg"
   xmlns:sodipodi="http://sodipodi.sourceforge.net/DTD/sodipodi-0.dtd"
   xmlns:inkscape="http://www.inkscape.org/namespaces/inkscape"
   id="svg5512"
   version="1.1"
   inkscape:version="0.91 r13725"
   xml:space="preserve"
   width="13.25001cm"
   height="6.1466398cm"
   viewBox="0 0 469.48854 217.79432"
   sodipodi:docname="x2c_ocdft_workflow.svg"><metadata
     id="metadata5518"><rdf:RDF><cc:Work
         rdf:about=""><dc:format>image/svg+xml</dc:format><dc:type
           rdf:resource="http://purl.org/dc/dcmitype/StillImage" /><dc:title></dc:title></cc:Work></rdf:RDF></metadata><defs
     id="defs5516"><marker
       inkscape:stockid="Arrow1Mend"
       orient="auto"
       refY="0"
       refX="0"
       id="Arrow1Mend"
       style="overflow:visible"
       inkscape:isstock="true"><path
         id="path4151"
         d="M 0,0 5,-5 -12.5,0 5,5 0,0 Z"
         style="fill:#000000;fill-opacity:1;fill-rule:evenodd;stroke:#000000;stroke-width:1pt;stroke-opacity:1"
         transform="matrix(-0.4,0,0,-0.4,-4,0)"
         inkscape:connector-curvature="0" /></marker><clipPath
       clipPathUnits="userSpaceOnUse"
       id="clipPath5530"><path
         d="m 0,145.889 517.323,0 L 517.323,0 0,0 0,145.889 Z"
         id="path5532"
         inkscape:connector-curvature="0" /></clipPath><clipPath
       clipPathUnits="userSpaceOnUse"
       id="clipPath5638"><path
         d="m 0,145.889 517.323,0 L 517.323,0 0,0 0,145.889 Z"
         id="path5640"
         inkscape:connector-curvature="0" /></clipPath><clipPath
       clipPathUnits="userSpaceOnUse"
       id="clipPath5652"><path
         d="m 6.161,2.003 28,0 0,11.994 -28,0 0,-11.994 z"
         id="path5654"
         inkscape:connector-curvature="0" /></clipPath><clipPath
       clipPathUnits="userSpaceOnUse"
       id="clipPath5684"><path
         d="m 0,145.889 517.323,0 L 517.323,0 0,0 0,145.889 Z"
         id="path5686"
         inkscape:connector-curvature="0" /></clipPath><clipPath
       clipPathUnits="userSpaceOnUse"
       id="clipPath5816"><path
         d="m 86.161,2.003 28,0 0,11.994 -28,0 0,-11.994 z"
         id="path5818"
         inkscape:connector-curvature="0" /></clipPath><clipPath
       clipPathUnits="userSpaceOnUse"
       id="clipPath5848"><path
         d="m 0,145.889 517.323,0 L 517.323,0 0,0 0,145.889 Z"
         id="path5850"
         inkscape:connector-curvature="0" /></clipPath><clipPath
       clipPathUnits="userSpaceOnUse"
       id="clipPath5976"><path
         d="m 166.161,2.003 28.001,0 0,11.994 -28.001,0 0,-11.994 z"
         id="path5978"
         inkscape:connector-curvature="0" /></clipPath><clipPath
       clipPathUnits="userSpaceOnUse"
       id="clipPath6008"><path
         d="m 0,145.889 517.323,0 L 517.323,0 0,0 0,145.889 Z"
         id="path6010"
         inkscape:connector-curvature="0" /></clipPath><clipPath
       clipPathUnits="userSpaceOnUse"
       id="clipPath6426"><path
         d="m 0,145.889 517.323,0 L 517.323,0 0,0 0,145.889 Z"
         id="path6428"
         inkscape:connector-curvature="0" /></clipPath><clipPath
       clipPathUnits="userSpaceOnUse"
       id="clipPath6576"><path
         d="m 325.911,134.583 180.25,0 0,-2.584 -180.25,0 0,2.584 z"
         id="path6578"
         inkscape:connector-curvature="0" /></clipPath><clipPath
       clipPathUnits="userSpaceOnUse"
       id="clipPath6596"><path
         d="m 245.911,16.668 100.25,0 0,-2.584 -100.25,0 0,2.584 z"
         id="path6598"
         inkscape:connector-curvature="0" /></clipPath><clipPath
       clipPathUnits="userSpaceOnUse"
       id="clipPath6612"><path
         d="m 270.258,12.6289 55.555,0 0,-9.54003 -55.555,0 0,9.54003 z"
         id="path6614"
         inkscape:connector-curvature="0" /></clipPath><clipPath
       clipPathUnits="userSpaceOnUse"
       id="clipPath6632"><path
         d="m 246.161,2.003 28,0 0,11.994 -28,0 0,-11.994 z"
         id="path6634"
         inkscape:connector-curvature="0" /></clipPath><clipPath
       clipPathUnits="userSpaceOnUse"
       id="clipPath6664"><path
         d="m 486.161,2.003 28,0 0,11.994 -28,0 0,-11.994 z"
         id="path6666"
         inkscape:connector-curvature="0" /></clipPath><clipPath
       clipPathUnits="userSpaceOnUse"
       id="clipPath6696"><path
         d="m 406.161,2.003 28,0 0,11.994 -28,0 0,-11.994 z"
         id="path6698"
         inkscape:connector-curvature="0" /></clipPath><clipPath
       clipPathUnits="userSpaceOnUse"
       id="clipPath6728"><path
         d="m 326.161,2.003 28,0 0,11.994 -28,0 0,-11.994 z"
         id="path6730"
         inkscape:connector-curvature="0" /></clipPath><clipPath
       clipPathUnits="userSpaceOnUse"
       id="clipPath9724"><rect
         style="opacity:1;fill:#ff0000;fill-opacity:1;stroke:#ff0000;stroke-width:1.20000005;stroke-miterlimit:4;stroke-dasharray:none;stroke-dashoffset:0;stroke-opacity:1"
         id="rect9726"
         width="280.52347"
         height="140.82278"
         x="-0.56104696"
         y="-130.89024"
         transform="scale(1,-1)" /></clipPath><clipPath
       clipPathUnits="userSpaceOnUse"
       id="clipPath9730"><rect
         style="opacity:1;fill:#ff0000;fill-opacity:1;stroke:#ff0000;stroke-width:1.20000005;stroke-miterlimit:4;stroke-dasharray:none;stroke-dashoffset:0;stroke-opacity:1"
         id="rect9732"
         width="167.19199"
         height="29.174442"
         x="85.279137"
         y="-157.8205"
         transform="scale(1,-1)" /></clipPath></defs><sodipodi:namedview
     pagecolor="#ffffff"
     bordercolor="#666666"
     borderopacity="1"
     objecttolerance="10"
     gridtolerance="10"
     guidetolerance="10"
     inkscape:pageopacity="0"
     inkscape:pageshadow="2"
     inkscape:window-width="1371"
     inkscape:window-height="694"
     id="namedview5514"
     showgrid="false"
     inkscape:zoom="2.0165351"
     inkscape:cx="226.63702"
     inkscape:cy="121.21831"
     inkscape:window-x="0"
     inkscape:window-y="0"
     inkscape:window-maximized="0"
     inkscape:current-layer="g5520"
     units="cm" /><g
     id="g5520"
     inkscape:groupmode="layer"
     inkscape:label="Figure2NEW"
     transform="matrix(1.25,0,0,-1.25,0,217.79438)"><text
       xml:space="preserve"
       style="font-style:normal;font-weight:normal;font-size:10px;line-height:125%;font-family:sans-serif;letter-spacing:0px;word-spacing:0px;fill:#000000;fill-opacity:1;stroke:none;stroke-width:1px;stroke-linecap:butt;stroke-linejoin:miter;stroke-opacity:1"
       x="132.50452"
       y="-162.65527"
       id="text13188"
       sodipodi:linespacing="125%"
       transform="scale(1,-1)"><tspan
         sodipodi:role="line"
         id="tspan13190"
         x="132.50452"
         y="-162.65527">X2C-OCDFT Workflow</tspan></text>
<rect
       style="opacity:1;fill:none;fill-opacity:1;stroke:#000000;stroke-width:0.91902435;stroke-miterlimit:4;stroke-dasharray:none;stroke-dashoffset:0;stroke-opacity:1"
       id="rect13192"
       width="130.79861"
       height="66.994408"
       x="4.4234328"
       y="-155.05809"
       transform="scale(1,-1)" /><text
       xml:space="preserve"
       style="font-style:normal;font-weight:normal;font-size:10px;line-height:125%;font-family:sans-serif;text-align:center;letter-spacing:0px;word-spacing:0px;text-anchor:middle;fill:#000000;fill-opacity:1;stroke:none;stroke-width:1px;stroke-linecap:butt;stroke-linejoin:miter;stroke-opacity:1"
       x="69.392212"
       y="-147.1832"
       id="text13194"
       sodipodi:linespacing="125%"
       transform="scale(1,-1)"><tspan
         sodipodi:role="line"
         id="tspan13196"
         x="69.392212"
         y="-147.1832"
         style="font-size:8px;text-align:center;text-anchor:middle">Perform FW transformation at a</tspan><tspan
         sodipodi:role="line"
         x="69.392212"
         y="-137.1832"
         style="font-size:8px;text-align:center;text-anchor:middle"
         id="tspan13200">low-level to obtain coupling and</tspan><tspan
         sodipodi:role="line"
         x="69.392212"
         y="-127.1832"
         style="font-size:8px;text-align:center;text-anchor:middle"
         id="tspan13204">renormalization matrices.</tspan></text>
</g></svg>